<?xml version="1.0" encoding="UTF-8" standalone="no"?><!DOCTYPE svg PUBLIC "-//W3C//DTD SVG 1.1//EN" "http://www.w3.org/Graphics/SVG/1.1/DTD/svg11.dtd"><svg width="100%" height="100%" viewBox="0 0 150 150" version="1.1" xmlns="http://www.w3.org/2000/svg" xmlns:xlink="http://www.w3.org/1999/xlink" xml:space="preserve" xmlns:serif="http://www.serif.com/" style="fill-rule:evenodd;clip-rule:evenodd;stroke-linejoin:round;stroke-miterlimit:1.41421;"><path d="M64.933,92.621l11.294,-10.517l-4.966,-72.749l-18.303,50.27l11.975,32.996Z" style="fill:#139be9;"/><path d="M75.089,0l5.337,78.193l17.218,-16.037l-22.555,-62.156Z" style="fill:#67c6ef;"/><path d="M50.585,66.142l-19.609,53.858l39.154,0l-19.545,-53.858Z" style="fill:#195fad;"/><path d="M66.583,97.166l8.289,22.834l43.761,0l-19.341,-53.3l-32.709,30.466Z" style="fill:#158fc2;"/><path d="M41.143,144.074c0,0 0,0.001 0,0.001c0,0.468 -0.385,0.854 -0.854,0.854c0,0 -10.364,0 -10.364,0c-0.469,0 -0.854,-0.386 -0.854,-0.854c0,0 0,-0.001 0,-0.001l0,-6.26c0,-0.472 0.382,-0.856 0.854,-0.856l10.364,0c0.471,0 0.853,0.384 0.853,0.856l0,6.26l0.001,0Zm0.971,-12.257l-13.897,0c-2.5,0.003 -4.555,2.062 -4.553,4.562l0,9.054c-0.002,2.5 2.053,4.559 4.553,4.562l13.898,0c2.499,-0.002 4.553,-2.059 4.553,-4.557c0,-0.002 0,-0.003 0,-0.005l0,-9.054c0,-0.002 0,-0.003 0,-0.005c0,-2.498 -2.055,-4.555 -4.554,-4.557Zm-21.331,13.112l-14.522,0c-0.468,0 -0.854,-0.386 -0.854,-0.854c0,0 0,-0.001 0,-0.001l0,-6.259c0,-0.474 0.383,-0.857 0.854,-0.857l14.522,0l0,-5.141l-16.231,0c-2.5,0.003 -4.555,2.062 -4.552,4.562l0,9.053c0,0.002 0,0.004 0,0.006c0,2.498 2.055,4.555 4.553,4.557l16.23,0l0,-5.066Zm99.194,-13.112l0,11.64c0,0 0,0 0,0.001c0,0.468 -0.386,0.854 -0.854,0.854c0,0 -8.443,0 -8.443,0c-0.469,-0.001 -0.853,-0.387 -0.853,-0.855l0,-11.64l-6.067,0l0,13.6c0,0.002 0,0.003 0,0.005c0,2.498 2.054,4.554 4.552,4.557l13.092,0c2.5,-0.003 4.556,-2.061 4.554,-4.561l0,-13.601l-5.981,0Zm25.48,6.887l-10.286,0c0,0 -0.854,-0.024 -0.854,-0.799l0,-0.484c0,-0.474 0.382,-0.856 0.854,-0.856l14.829,0l0,-0.185c0,-2.521 -2.037,-4.563 -4.552,-4.563l-12.561,0c-2.498,0.002 -4.553,2.059 -4.553,4.557c0,0.002 0,0.004 0,0.006l0,2.181c0,0.002 0,0.004 0,0.006c0,2.498 2.055,4.555 4.553,4.557l10.299,0c0,0 0.854,0.047 0.854,0.845l0,0.439c0,0.469 -0.385,0.855 -0.854,0.855l-14.851,0l0,0.17c-0.003,2.5 2.052,4.559 4.552,4.562l12.561,0c2.5,-0.003 4.555,-2.062 4.552,-4.562l0,-1.116l-0.003,-1.059c0,-0.005 0,-0.01 0,-0.014c0,-2.491 -2.049,-4.54 -4.54,-4.54c0,0 0,0 0,0m-44.263,-3.242l0,14.538l-5.626,0l0,-7.817l5.626,-6.721Zm-19.113,-3.645l0,11.894l8.893,-10.57l0.002,0c0.583,-0.829 1.535,-1.324 2.549,-1.324l6.916,0l-5.252,6.276l0,-0.006l-8.984,10.714c-0.592,0.745 -1.493,1.18 -2.445,1.179l-7.306,0l0,-18.163l5.627,0Zm-32.932,3.645l0,14.538l5.626,0l0,-7.817l-5.626,-6.721Zm19.271,-3.645l0,11.894l-8.894,-10.571l-0.002,0.001c-0.583,-0.829 -1.535,-1.324 -2.548,-1.324l-6.915,0l5.252,6.275l0,-0.006l8.982,10.714l0.001,0c0.592,0.745 1.493,1.18 2.444,1.18l7.307,0l0,-18.163l-5.626,0l-0.001,0Z" style="fill:#195fad;"/></svg>