<?xml version="1.0" encoding="utf-8"?>
<!-- Generator: Adobe Illustrator 21.1.0, SVG Export Plug-In . SVG Version: 6.00 Build 0)  -->
<svg version="1.1" id="Capa_1" xmlns="http://www.w3.org/2000/svg" xmlns:xlink="http://www.w3.org/1999/xlink" x="0px" y="0px"
	 viewBox="0 0 75 108" style="enable-background:new 0 0 75 108;" xml:space="preserve">
<title>kawalant_iso</title>
<desc>Created with Sketch.</desc>
<g id="Master-Operator">
	<g id="Log-in" transform="translate(-1243.000000, -284.000000)">
		<g id="kawalant_iso" transform="translate(1243.000000, 284.000000)">
			<path id="Shape" d="M18.5,52.6C12.3,46.4,6.2,40.2,0,33.9c0.4,0,4.5,0.1,4.5,0.1l26.4,26.6c0,0,0-29.5,0-44.2
				c-1.5-0.4-2.8-1.1-3.9-2.3c-2.3-2.3-3-6-1.7-9c1.2-3,4.2-5,7.5-5c4.1,0,7.5,2.9,8.2,6.8c0.7,4.1-1.5,8-5.4,9.4
				c-0.2,0.1-0.3,0.1-0.4,0.2c-0.1,0.2-0.1,57.2-0.1,57.5c-1.4,0-4,0-4,0l-0.3-9c0,0-9.3-9.3-9.4-9.5C20.7,56.2,4.9,74,4.9,74
				s-3,0-4.7,0C6.2,66.8,12.3,59.8,18.5,52.6z M37.9,8.4c0-2.9-2.3-5.3-5.1-5.3c-2.8,0.1-5.1,2.4-5.1,5.2s2.3,5.2,5.1,5.2
				S37.9,11.2,37.9,8.4z"/>
			<path id="Shape_1_" d="M51.2,74c-1.5,0-2.8,0-4.2,0c0-19.7,0-39.3,0-59c1.3,0,2.7,0,4.1,0c0,6.4,0,12.7,0,19.2c0.7,0,1.3,0,2,0
				c1.5,0,2.9,0,4.3,0c0.5,0,0.7-0.2,0.8-0.6c0.9-3.4,3.7-5.7,7.3-6.1c3.6-0.3,6.4,1.1,8.3,4.1c2.5,4.1,0.8,9.4-3.6,11.5
				c-4.3,2.1-9.6,0.2-11.6-4c-0.1-0.3-0.2-0.6-0.4-0.9c-2.4,0-4.8,0-7.3,0C51.2,50.2,51.2,62.1,51.2,74z M71.9,35.8
				c0-2.9-2.4-5.2-5.4-5.2c-2.9,0-5.3,2.3-5.3,5.1c0,2.8,2.4,5.2,5.3,5.2C69.5,40.9,71.9,38.6,71.9,35.8z"/>
			<path id="Shape_2_" d="M43.6,91.7c0.4,0.1,0.8,0.3,1.1,0.4c3.7,1.5,6,5.4,5.2,9.2c-0.8,4-4.4,6.8-8.5,6.7c-4.1-0.1-7.6-3-8.2-6.9
				c-0.6-4,1.8-7.9,5.7-9.2c0.3-0.1,0.5-0.2,0.6-0.4c0.1-0.1,0.1-37.9,0.1-56.6c0-0.3,0-0.6,0-1c1.4,0,2.7,0,4.1,0
				C43.6,53.3,43.6,72.5,43.6,91.7z M46.8,99.8c0-2.8-2.4-5.2-5.3-5.2c-2.9,0-5.3,2.3-5.4,5.1c0,2.8,2.4,5.2,5.3,5.2
				C44.4,104.9,46.8,102.6,46.8,99.8z"/>
		</g>
	</g>
</g>
</svg>
