<?xml version="1.0" encoding="UTF-8"?>
<svg width="320px" height="60px" viewBox="0 0 320 60" version="1.1" xmlns="http://www.w3.org/2000/svg" xmlns:xlink="http://www.w3.org/1999/xlink">
    <!-- Generator: Sketch 46.2 (44496) - http://www.bohemiancoding.com/sketch -->
    <title>kawlant_logo</title>
    <desc>Created with Sketch.</desc>
    <defs></defs>
    <g id="Master-Operator" stroke="none" stroke-width="1" fill="none" fill-rule="evenodd">
        <g id="Log-in" transform="translate(-1120.000000, -444.000000)" fill-rule="nonzero">
            <g id="kawlant_logo" transform="translate(1120.000000, 443.000000)">
                <path d="M142.7,49.1 C143.9,45.9 145,42.7 146.2,39.6 C148.4,33.5 150.6,27.5 152.8,21.4 C153.1,20.7 153.4,20.4 154.2,20.4 C154.9,20.5 155.6,20.5 156.2,20.4 C157.1,20.3 157.3,20.7 157,21.5 C155.6,25.4 154.2,29.4 152.8,33.3 C149.8,41.8 146.8,50.2 143.8,58.7 C143.6,59.3 143.7,60.4 142.7,60.4 C141.7,60.4 141.8,59.3 141.6,58.7 C138.4,50 135.3,41.2 132.1,32.5 C132,32.3 131.9,32 131.7,31.5 C130.8,34 129.9,36.3 129.1,38.6 C126.6,45.5 124.1,52.4 121.6,59.3 C121.4,59.7 121.4,60.4 120.7,60.4 C119.9,60.4 119.9,59.7 119.7,59.3 C115.2,46.7 110.7,34.1 106.2,21.5 C105.8,20.5 106.1,20.4 107.1,20.4 C110.1,20.4 110.1,20.4 111.1,23.1 C114.2,31.5 117.2,39.9 120.3,48.3 C120.4,48.6 120.5,48.8 120.7,49.4 C121.4,47.5 122,45.8 122.6,44.2 C125.4,36.7 128.1,29.1 130.9,21.6 C131.1,21.2 131,20.5 131.7,20.4 C132.4,20.4 132.4,21.1 132.6,21.5 C135.8,30.3 139,39.1 142.2,47.9 C142.3,48.3 142.5,48.6 142.6,49 C142.6,49.1 142.7,49.1 142.7,49.1 Z" id="Shape" fill="#949699"></path>
                <path d="M83.4,27.4 C83.4,25.2 83.4,23.2 83.4,21.3 C83.4,20.5 83.6,20.3 84.4,20.3 C87.6,20.3 87.6,20.2 87.6,23.5 C87.6,35.4 87.6,47.2 87.6,59.1 C87.6,60.2 87.3,60.4 86.3,60.4 C83.4,60.3 83.4,60.4 83.4,57.5 C83.4,56.2 83.4,55 83.4,53.4 C82,54.9 80.9,56.2 79.5,57.2 C70.8,63.8 58.8,61.5 53.1,52.1 C47.9,43.6 48.8,33.2 55.4,25.7 C62,18.2 73.9,17.8 81,24.9 C81.7,25.7 82.4,26.5 83.4,27.4 Z M83.4,40.5 C83.4,38.2 83.4,35.9 83.4,33.7 C83.4,33.2 83.3,32.7 83.1,32.2 C79.6,25.1 70.4,22 63.3,25.4 C56.4,28.7 52.8,36.2 54.3,43.9 C55.6,50.5 60.7,55.5 67.3,56.7 C73,57.8 79.2,54.8 82.7,49.4 C83.2,48.6 83.5,47.8 83.5,46.8 C83.3,44.8 83.4,42.7 83.4,40.5 Z" id="Shape" fill="#949699"></path>
                <path d="M231.4,27.6 C231.4,25.4 231.4,23.4 231.4,21.4 C231.4,20.7 231.5,20.3 232.4,20.3 C235.5,20.3 235.5,20.2 235.5,23.3 C235.5,35.2 235.5,47.1 235.5,59 C235.5,60.1 235.2,60.4 234.1,60.4 C231.4,60.3 231.4,60.4 231.4,57.7 C231.4,56.3 231.4,55 231.4,53.6 C230.9,53.5 230.9,53.9 230.7,54.1 C227.1,58.4 222.5,60.9 216.9,61 C210.3,61.1 205.2,58 201.4,52.7 C195.5,44.2 196.7,32.2 204.1,25 C211.6,17.7 223.6,18.3 230.3,26.3 C230.6,26.7 230.9,27 231.4,27.6 Z M231.4,40.5 C231.4,38.2 231.4,35.9 231.4,33.7 C231.4,33.2 231.3,32.8 231.1,32.3 C228,26.1 220.3,22.7 213.5,24.6 C205.2,27 200.3,35.8 202.3,44.5 C203.8,51 208.8,55.9 215.3,56.8 C221.7,57.7 226.7,55.1 230.3,49.9 C231,48.9 231.4,47.9 231.3,46.7 C231.3,44.5 231.4,42.5 231.4,40.5 Z" id="Shape" fill="#949699"></path>
                <path d="M0,60.5 C2,58.2 3.9,56 5.8,53.9 C9.9,49.2 13.9,44.6 18.1,39.9 C18.7,39.2 18.5,38.9 18,38.4 C12.3,32.8 6.7,27.2 1,21.6 C0.7,21.3 0.4,21 0,20.5 C1.5,20.5 2.9,20.5 4.2,20.5 C4.8,20.5 5,20.9 5.4,21.3 C13.7,29.6 22,37.9 30.3,46.2 C30.6,46.5 30.8,46.9 31.1,47.2 C31.2,47.1 31.3,47.1 31.4,47 C31.4,46.6 31.4,46.2 31.4,45.7 C31.4,31.3 31.4,16.8 31.4,2.4 C31.4,1.4 31.7,1.1 32.7,1.2 C33.6,1.3 34.8,0.9 35.4,1.4 C36,2 35.6,3.2 35.6,4.1 C35.6,22.5 35.6,40.9 35.6,59.3 C35.6,60.3 35.4,60.7 34.3,60.6 C33.4,60.5 32.2,61 31.7,60.4 C31.1,59.8 31.5,58.7 31.5,57.7 C31.5,56 31.5,54.3 31.5,52.7 C31.5,52.1 31.3,51.7 30.9,51.2 C28.1,48.4 25.3,45.6 22.5,42.8 C21.9,42.2 21.6,42.2 21.1,42.8 C16.4,48.3 11.6,53.7 6.9,59.2 C6.1,60.1 5.3,60.6 4.1,60.5 C2.6,60.4 1.5,60.5 0,60.5 Z" id="Shape" fill="#010101"></path>
                <path d="M260.9,27.7 C263.5,25.3 265.9,23.4 268.8,22.1 C273.1,20.1 277.7,19.4 282.4,20.2 C287.2,21 290.1,24.3 290.9,29.4 C291.2,31.4 291.3,33.4 291.3,35.4 C291.3,43.4 291.3,51.3 291.3,59.3 C291.3,60.3 291,60.6 290,60.6 C287.1,60.6 287.1,60.6 287.1,57.7 C287.1,49.6 287.1,41.5 287.1,33.5 C287.1,32.2 286.8,30.9 286.5,29.6 C285.6,26.4 283.5,24.7 280.3,24.3 C273.3,23.5 267.6,26.2 262.7,31 C261.4,32.3 260.8,33.5 260.9,35.4 C261,43.4 260.9,51.4 261,59.4 C261,60.4 260.8,60.7 259.8,60.7 C257,60.6 257,60.7 257,57.9 C257,45.9 257,33.9 257,21.9 C257,20.8 257.3,20.5 258.3,20.6 C261,20.7 261.1,20.6 261.1,23.4 C260.9,24.6 260.9,26 260.9,27.7 Z" id="Shape" fill="#939598"></path>
                <path d="M307,30.7 C307,21.3 307,11.8 307,2.4 C307,1.5 307.1,1 308.2,1.1 C309.1,1.2 310.4,0.7 310.9,1.3 C311.4,1.9 311.1,3.1 311.1,4.1 C311.1,9.2 311.1,14.3 311.1,19.4 C311.1,20.2 311.3,20.5 312.2,20.5 C314.3,20.4 316.4,20.5 318.6,20.5 C319.3,20.5 319.5,20.7 319.5,21.4 C319.5,24.6 319.6,24.6 316.4,24.6 C315.1,24.6 313.8,24.7 312.4,24.6 C311.4,24.5 311.1,24.8 311.1,25.8 C311.1,36.9 311.1,48 311.2,59.1 C311.2,60.3 310.9,60.5 309.8,60.5 C307.1,60.4 307.1,60.5 307.1,57.8 C307,48.7 307,39.7 307,30.7 Z" id="Shape" fill="#040404"></path>
                <path d="M175.7,30.8 C175.7,21.3 175.7,11.8 175.7,2.3 C175.7,1.4 175.9,1 176.8,1.1 C177.7,1.2 179,0.8 179.6,1.3 C180.2,1.8 179.8,3.1 179.8,4 C179.8,22.4 179.8,40.8 179.8,59.2 C179.8,60.2 179.6,60.6 178.5,60.5 C177.6,60.4 176.4,60.8 175.9,60.3 C175.3,59.8 175.7,58.6 175.7,57.7 C175.7,48.7 175.7,39.8 175.7,30.8 Z" id="Shape" fill="#040404"></path>
            </g>
        </g>
    </g>
</svg>