<?xml version="1.0" encoding="UTF-8"?>
<svg width="30px" height="30px" viewBox="0 0 30 30" version="1.1" xmlns="http://www.w3.org/2000/svg" xmlns:xlink="http://www.w3.org/1999/xlink">
    <!-- Generator: Sketch 46.2 (44496) - http://www.bohemiancoding.com/sketch -->
    <title>Alerts_Inactive_icon</title>
    <desc>Created with Sketch.</desc>
    <defs></defs>
    <g id="Master-Operator" stroke="none" stroke-width="1" fill="none" fill-rule="evenodd">
        <g id="Alerts_Inactive" fill="#231F20">
            <path d="M15,2 C7.82029825,2 2,7.82029825 2,15 C2,22.1797017 7.82029825,28 15,28 C22.1797017,28 28,22.1797017 28,15 C28,7.82029825 22.1797017,2 15,2 Z M15,0 C23.2842712,0 30,6.71572875 30,15 C30,23.2842712 23.2842712,30 15,30 C6.71572875,30 0,23.2842712 0,15 C0,6.71572875 6.71572875,0 15,0 Z" id="Rectangle" fill-rule="nonzero"></path>
            <path d="M15,20 L15,20 L15,20 C16.1045695,20 17,20.8954305 17,22 L17,22 L17,22 C17,23.1045695 16.1045695,24 15,24 L15,24 L15,24 C13.8954305,24 13,23.1045695 13,22 L13,22 L13,22 C13,20.8954305 13.8954305,20 15,20 Z" id="!"></path>
            <polygon id="Path" points="13 8 17 8 17 12.4 15.944 19 14.056 19 13 12.4"></polygon>
        </g>
    </g>
</svg>