<svg viewBox="0 0 35 35" xmlns="http://www.w3.org/2000/svg" fill-rule="evenodd" clip-rule="evenodd" stroke-linejoin="round" stroke-miterlimit="1.414"><path d="M17.726.001l.225.005.225.007.224.01.223.013.223.015.221.018.221.021.22.024.22.027.218.029.218.032.216.034.216.038.215.039.214.043.213.045.212.047.211.051.21.052.209.056.209.057.207.061.206.062.204.066.204.067.203.07.201.073.201.074.199.078.198.079.197.082.196.084.194.087.193.089.192.091.191.093.189.096.188.097.187.1.185.103.184.104.182.106.182.109.179.111.178.113.177.114.176.117.173.119.173.121.171.124.169.125.167.127.167.129.164.13.163.133.161.135.16.137.158.138.156.14.155.143.152.144.152.145.149.148.148.149.145.152.144.152.143.155.14.156.138.158.137.16.135.161.133.163.13.164.129.167.127.167.125.169.124.171.121.173.119.173.117.176.114.177.113.178.111.179.109.182.106.182.104.184.103.185.1.187.097.188.096.189.093.191.091.192.089.193.087.194.084.196.082.197.079.198.078.199.074.201.073.201.07.203.067.204.066.204.062.206.061.207.057.209.056.209.052.21.051.211.047.212.045.213.043.214.039.215.038.216.034.216.032.218.029.218.027.22.024.22.021.221.018.221.015.223.013.223.01.224.007.225.005.225.001.226-.001.226-.005.225-.007.225-.01.224-.013.223-.015.223-.018.221-.021.221-.024.22-.027.22-.029.218-.032.218-.034.216-.038.216-.039.215-.043.214-.045.213-.047.212-.051.211-.052.21-.056.209-.057.209-.061.207-.062.206-.066.204-.067.204-.07.203-.073.201-.074.201-.078.199-.079.198-.082.197-.084.196-.087.194-.089.193-.091.192-.093.191-.096.189-.097.188-.1.187-.103.185-.104.184-.106.182-.109.182-.111.179-.113.178-.114.177-.117.176-.119.173-.121.173-.124.171-.125.169-.127.167-.129.167-.13.164-.133.163-.135.161-.137.16-.138.158-.14.156-.143.155-.144.152-.145.152-.148.149-.149.148-.152.145-.152.144-.155.143-.156.14-.158.138-.16.137-.161.135-.163.133-.164.13-.167.129-.167.127-.169.125-.171.124-.173.121-.173.119-.176.117-.177.114-.178.113-.179.111-.182.109-.182.106-.184.104-.185.103-.187.1-.188.097-.189.096-.191.093-.192.091-.193.089-.194.087-.196.084-.197.082-.198.079-.199.078-.201.074-.201.073-.203.07-.204.067-.204.066-.206.062-.207.061-.209.057-.209.056-.21.052-.211.051-.212.047-.213.045-.214.043-.215.039-.216.038-.216.034-.218.032-.218.029-.22.027-.22.024-.221.021-.221.018-.223.015-.223.013-.224.01-.225.007-.225.005L17.5 35l-.226-.001-.225-.005-.225-.007-.224-.01-.223-.013-.223-.015-.221-.018-.221-.021-.22-.024-.22-.027-.218-.029-.218-.032-.216-.034-.216-.038-.215-.039-.214-.043-.213-.045-.212-.047-.211-.051-.21-.052-.209-.056-.209-.057-.207-.061-.206-.062-.204-.066-.204-.067-.203-.07-.201-.073-.201-.074-.199-.078-.198-.079-.197-.082-.196-.084-.194-.087-.193-.089-.192-.091-.191-.093-.189-.096-.188-.097-.187-.1-.185-.103-.184-.104-.182-.106-.182-.109-.179-.111-.178-.113-.177-.114-.176-.117-.173-.119-.173-.121-.171-.124-.169-.125-.167-.127-.167-.129-.164-.13-.163-.133-.161-.135-.16-.137-.158-.138-.156-.14-.155-.143-.152-.144-.152-.145-.149-.148-.148-.149-.145-.152-.144-.152-.143-.155-.14-.156-.138-.158-.137-.16-.135-.161-.133-.163-.13-.164-.129-.167-.127-.167-.125-.169-.124-.171-.121-.173-.119-.173-.117-.176-.114-.177-.113-.178-.111-.179-.109-.182-.106-.182-.104-.184-.103-.185-.1-.187-.097-.188-.096-.189-.093-.191-.091-.192-.089-.193-.087-.194-.084-.196-.082-.197-.079-.198-.078-.199-.074-.201-.073-.201-.07-.203-.067-.204-.066-.204-.062-.206-.061-.207-.057-.209-.056-.209-.052-.21-.051-.211-.047-.212-.045-.213-.043-.214-.039-.215-.038-.216-.034-.216-.032-.218-.029-.218-.027-.22-.024-.22-.021-.221-.018-.221-.015-.223-.013-.223-.01-.224-.007-.225-.005-.225L0 17.5l.001-.226.005-.225.007-.225.01-.224.013-.223.015-.223.018-.221.021-.221.024-.22.027-.22.029-.218.032-.218.034-.216.038-.216.039-.215.043-.214.045-.213.047-.212.051-.211.052-.21.056-.209.057-.209.061-.207.062-.206.066-.204.067-.204.07-.203.073-.201.074-.201.078-.199.079-.198.082-.197.084-.196.087-.194.089-.193.091-.192.093-.191.096-.189.097-.188.1-.187.103-.185.104-.184.106-.182.109-.182.111-.179.113-.178.114-.177.117-.176.119-.173.121-.173.124-.171.125-.169.127-.167.129-.167.13-.164.133-.163.135-.161.137-.16.138-.158.14-.156.143-.155.144-.152.145-.152.148-.149.149-.148.152-.145.152-.144.155-.143.156-.14.158-.138.16-.137.161-.135.163-.133.164-.13.167-.129.167-.127.169-.125.171-.124.173-.121.173-.119.176-.117.177-.114.178-.113.179-.111.182-.109.182-.106.184-.104.185-.103.187-.1.188-.097.189-.096.191-.093.192-.091.193-.089.194-.087.196-.084.197-.082.198-.079.199-.078.201-.074.201-.073.203-.07.204-.067.204-.066.206-.062.207-.061.209-.057.209-.056.21-.052.211-.051.212-.047.213-.045.214-.043.215-.039.216-.038.216-.034.218-.032.218-.029.22-.027.22-.024.221-.021.221-.018.223-.015.223-.013.224-.01.225-.007.225-.005L17.5 0l.226.001zm-.427 2l-.2.004-.199.006-.199.009-.198.012-.197.013-.196.017-.196.018-.195.021-.194.024-.193.026-.193.028-.192.03-.191.033-.19.036-.19.037-.188.04-.188.042-.187.045-.186.046-.185.049-.184.051-.183.053-.182.056-.181.058-.181.059-.179.062-.178.065-.178.066-.176.068-.175.071-.174.072-.174.075-.172.076-.171.079-.17.08-.168.083-.168.085-.166.086-.166.089-.164.09-.163.093-.161.094-.161.096-.159.098-.158.1-.156.102-.156.104-.154.105-.152.107-.152.109-.15.111-.148.113-.148.114-.145.116-.145.118-.143.119-.141.121-.14.123-.139.124-.137.127-.135.127-.134.129-.133.131-.131.133-.129.134-.127.135-.127.137-.124.139-.123.14-.121.141-.119.143-.118.145-.116.145-.114.148-.113.148-.111.15-.109.152-.107.152-.105.154-.104.156-.102.156-.1.158-.098.159-.096.161-.094.161-.093.163-.09.164-.089.166-.086.166-.085.168-.083.168-.08.17-.079.171-.076.172-.075.174-.072.174-.071.175-.068.176-.066.178-.065.178-.062.179-.059.181-.058.181-.056.182-.053.183-.051.184-.049.185-.046.186-.045.187-.042.188-.04.188-.037.19-.036.19-.033.191-.03.192-.028.193-.026.193-.024.194-.021.195-.018.196-.017.196-.013.197-.012.198-.009.199-.006.199-.004.2L2 17.5l.001.201.004.2.006.199.009.199.012.198.013.197.017.196.018.196.021.195.024.194.026.193.028.193.03.192.033.191.036.19.037.19.04.188.042.188.045.187.046.186.049.185.051.184.053.183.056.182.058.181.059.181.062.179.065.178.066.178.068.176.071.175.072.174.075.174.076.172.079.171.08.17.083.168.085.168.086.166.089.166.09.164.093.163.094.161.096.161.098.159.1.158.102.156.104.156.105.154.107.152.109.152.111.15.113.148.114.148.116.145.118.145.119.143.121.141.123.14.124.139.127.137.127.135.129.134.131.133.133.131.134.129.135.128.137.126.139.124.14.123.141.121.143.119.145.118.145.116.148.114.148.113.15.111.152.109.152.107.154.105.156.104.156.102.158.1.159.098.161.096.161.094.163.093.164.09.166.089.166.086.168.085.168.083.17.08.171.079.172.076.174.075.174.072.175.071.176.068.178.066.178.065.179.062.181.059.181.058.182.056.183.053.184.051.185.049.186.046.187.045.188.042.188.04.19.037.19.036.191.033.192.03.192.028.194.026.194.024.195.021.196.018.196.017.198.013.197.012.199.009.199.006.2.004.201.001.201-.001.2-.004.199-.006.199-.009.197-.012.198-.013.196-.017.196-.018.195-.021.194-.024.194-.026.192-.028.192-.03.191-.033.19-.036.19-.037.188-.04.188-.042.187-.045.186-.046.185-.049.184-.051.183-.053.182-.056.181-.058.181-.059.179-.062.178-.065.178-.066.176-.068.175-.071.174-.072.174-.075.172-.076.171-.079.17-.08.168-.083.168-.085.166-.086.166-.089.164-.09.163-.093.161-.094.161-.096.159-.098.158-.1.156-.102.156-.104.154-.105.152-.107.152-.109.15-.111.148-.113.148-.114.145-.116.145-.118.143-.119.141-.121.14-.123.139-.124.137-.127.135-.127.134-.129.133-.131.131-.133.129-.134.127-.135.127-.137.124-.139.123-.14.121-.141.119-.143.118-.145.116-.145.114-.148.113-.148.111-.15.109-.152.107-.152.105-.154.104-.156.102-.156.1-.158.098-.159.096-.161.094-.161.093-.163.09-.164.089-.166.086-.166.085-.168.083-.168.08-.17.079-.171.076-.172.075-.174.072-.174.071-.175.068-.176.066-.178.065-.178.062-.179.059-.181.058-.181.056-.182.053-.183.051-.184.049-.185.046-.186.045-.187.042-.188.04-.188.037-.19.036-.19.033-.191.03-.192.028-.192.026-.194.024-.194.021-.195.018-.196.017-.196.013-.198.012-.197.009-.199.006-.199.004-.2L33 17.5l-.001-.201-.004-.2-.006-.199-.009-.199-.012-.197-.013-.198-.017-.196-.018-.196-.021-.195-.024-.194-.026-.194-.028-.192-.03-.192-.033-.191-.036-.19-.037-.19-.04-.188-.042-.188-.045-.187-.046-.186-.049-.185-.051-.184-.053-.183-.056-.182-.058-.181-.059-.181-.062-.179-.065-.178-.066-.178-.068-.176-.071-.175-.072-.174-.075-.174-.076-.172-.079-.171-.08-.17-.083-.168-.085-.168-.086-.166-.089-.166-.09-.164-.093-.163-.094-.161-.096-.161-.098-.159-.1-.158-.102-.156-.104-.156-.105-.154-.107-.152-.109-.152-.111-.15-.113-.148-.114-.148-.116-.145-.118-.145-.119-.143-.121-.141-.123-.14-.124-.139-.126-.137-.128-.135-.129-.134-.131-.133-.133-.131-.134-.129-.135-.127-.137-.127-.139-.124-.14-.123-.141-.121-.143-.119-.145-.118-.145-.116-.148-.114-.148-.113-.15-.111-.152-.109-.152-.107-.154-.105-.156-.104-.156-.102-.158-.1-.159-.098-.161-.096-.161-.094-.163-.093-.164-.09-.166-.089-.166-.086-.168-.085-.168-.083-.17-.08-.171-.079-.172-.076-.174-.075-.174-.072-.175-.071-.176-.068-.178-.066-.178-.065-.179-.062-.181-.059-.181-.058-.182-.056-.183-.053-.184-.051-.185-.049-.186-.046L21 2.397l-.188-.042-.188-.04-.19-.037-.19-.036-.191-.033-.192-.03-.193-.028-.193-.026-.194-.024-.195-.021-.196-.018-.196-.017-.197-.013-.198-.012-.199-.009-.199-.006-.2-.004L17.5 2l-.201.001z"/><circle cx="17" cy="25" r="2" transform="translate(1 3)"/><path d="M20 10l-1.074 14-.926.003-.926-.003L16 10V7h4v3z"/></svg>