<?xml version="1.0" encoding="UTF-8"?>
<svg width="30px" height="30px" viewBox="0 0 30 30" version="1.1" xmlns="http://www.w3.org/2000/svg" xmlns:xlink="http://www.w3.org/1999/xlink">
    <!-- Generator: Sketch 46.2 (44496) - http://www.bohemiancoding.com/sketch -->
    <title>Alerts_Active_icon</title>
    <desc>Created with Sketch.</desc>
    <defs></defs>
    <g id="Master-Operator" stroke="none" stroke-width="1" fill="none" fill-rule="evenodd">
        <g id="Alerts_Active">
            <rect id="Rectangle" fill="#DC3045" x="0" y="0" width="30" height="30" rx="15"></rect>
            <path d="M15,20 L15,20 L15,20 C16.1045695,20 17,20.8954305 17,22 L17,22 L17,22 C17,23.1045695 16.1045695,24 15,24 L15,24 L15,24 C13.8954305,24 13,23.1045695 13,22 L13,22 L13,22 C13,20.8954305 13.8954305,20 15,20 Z" id="!" fill="#FFFFFF"></path>
            <polygon id="Path" fill="#FFFFFF" points="13 8 17 8 17 12.4 15.944 19 14.056 19 13 12.4"></polygon>
        </g>
    </g>
</svg>