<?xml version="1.0" encoding="UTF-8" standalone="no"?><!DOCTYPE svg PUBLIC "-//W3C//DTD SVG 1.1//EN" "http://www.w3.org/Graphics/SVG/1.1/DTD/svg11.dtd"><svg width="100%" height="100%" viewBox="0 0 78 78" version="1.1" xmlns="http://www.w3.org/2000/svg" xmlns:xlink="http://www.w3.org/1999/xlink" xml:space="preserve" xmlns:serif="http://www.serif.com/" style="fill-rule:evenodd;clip-rule:evenodd;stroke-linejoin:round;stroke-miterlimit:1.41421;"><path d="M39.252,0.001l0.252,0.002l0.251,0.004l0.251,0.006l0.25,0.007l0.251,0.009l0.249,0.01l0.25,0.012l0.249,0.013l0.248,0.015l0.248,0.017l0.248,0.018l0.247,0.019l0.247,0.022l0.246,0.022l0.246,0.025l0.246,0.025l0.245,0.028l0.244,0.028l0.244,0.031l0.244,0.031l0.243,0.034l0.243,0.034l0.242,0.037l0.242,0.037l0.241,0.04l0.241,0.04l0.24,0.043l0.24,0.043l0.239,0.045l0.239,0.047l0.238,0.048l0.237,0.049l0.238,0.051l0.236,0.053l0.236,0.053l0.236,0.056l0.235,0.056l0.234,0.058l0.234,0.06l0.233,0.061l0.233,0.062l0.232,0.063l0.232,0.066l0.231,0.066l0.23,0.068l0.23,0.069l0.229,0.071l0.229,0.072l0.228,0.073l0.227,0.075l0.227,0.076l0.226,0.077l0.226,0.079l0.224,0.08l0.225,0.081l0.223,0.083l0.223,0.084l0.223,0.085l0.221,0.087l0.221,0.088l0.221,0.089l0.219,0.091l0.219,0.092l0.219,0.093l0.217,0.095l0.217,0.095l0.217,0.097l0.215,0.099l0.215,0.099l0.214,0.101l0.214,0.102l0.213,0.104l0.212,0.104l0.211,0.106l0.21,0.107l0.21,0.109l0.209,0.109l0.209,0.111l0.207,0.112l0.207,0.113l0.206,0.115l0.206,0.115l0.204,0.117l0.204,0.118l0.203,0.119l0.202,0.121l0.202,0.122l0.2,0.122l0.2,0.124l0.199,0.125l0.198,0.127l0.198,0.127l0.196,0.129l0.196,0.129l0.195,0.131l0.194,0.132l0.193,0.134l0.193,0.134l0.191,0.135l0.191,0.137l0.19,0.138l0.189,0.138l0.188,0.14l0.187,0.141l0.187,0.142l0.185,0.143l0.185,0.145l0.184,0.145l0.183,0.146l0.182,0.148l0.181,0.148l0.18,0.15l0.179,0.151l0.178,0.151l0.178,0.153l0.176,0.154l0.176,0.155l0.174,0.156l0.174,0.157l0.173,0.157l0.171,0.159l0.171,0.16l0.17,0.161l0.169,0.162l0.168,0.163l0.167,0.164l0.166,0.165l0.165,0.166l0.164,0.167l0.163,0.168l0.162,0.169l0.161,0.17l0.16,0.171l0.159,0.171l0.157,0.173l0.157,0.174l0.156,0.174l0.155,0.176l0.154,0.176l0.153,0.178l0.151,0.178l0.151,0.179l0.15,0.18l0.148,0.181l0.148,0.182l0.146,0.183l0.145,0.184l0.145,0.185l0.143,0.185l0.142,0.187l0.141,0.187l0.14,0.188l0.138,0.189l0.138,0.19l0.137,0.191l0.135,0.191l0.134,0.193l0.134,0.193l0.132,0.194l0.131,0.195l0.129,0.196l0.129,0.196l0.127,0.198l0.127,0.198l0.125,0.199l0.124,0.2l0.122,0.2l0.122,0.202l0.121,0.202l0.119,0.203l0.118,0.204l0.117,0.204l0.115,0.206l0.115,0.206l0.113,0.207l0.112,0.207l0.111,0.209l0.109,0.209l0.109,0.21l0.107,0.21l0.106,0.211l0.104,0.212l0.104,0.213l0.102,0.214l0.101,0.214l0.099,0.215l0.099,0.215l0.097,0.217l0.095,0.217l0.095,0.217l0.093,0.219l0.092,0.219l0.091,0.219l0.089,0.221l0.088,0.221l0.087,0.221l0.085,0.223l0.084,0.223l0.083,0.223l0.081,0.225l0.08,0.224l0.079,0.226l0.077,0.226l0.076,0.227l0.075,0.227l0.073,0.228l0.072,0.229l0.071,0.229l0.069,0.23l0.068,0.23l0.066,0.231l0.066,0.232l0.063,0.232l0.062,0.233l0.061,0.233l0.06,0.234l0.058,0.234l0.056,0.235l0.056,0.236l0.053,0.236l0.053,0.236l0.051,0.238l0.049,0.237l0.048,0.238l0.047,0.239l0.045,0.239l0.043,0.24l0.043,0.24l0.04,0.241l0.04,0.241l0.037,0.242l0.037,0.242l0.034,0.243l0.034,0.243l0.031,0.244l0.031,0.244l0.028,0.244l0.028,0.245l0.025,0.246l0.025,0.246l0.022,0.246l0.022,0.247l0.019,0.247l0.018,0.248l0.017,0.248l0.015,0.248l0.013,0.249l0.012,0.25l0.01,0.249l0.009,0.251l0.007,0.25l0.006,0.251l0.004,0.251l0.002,0.252l0.001,0.252l-0.001,0.252l-0.002,0.252l-0.004,0.251l-0.006,0.251l-0.007,0.25l-0.009,0.251l-0.01,0.249l-0.012,0.25l-0.013,0.249l-0.015,0.248l-0.017,0.248l-0.018,0.248l-0.019,0.247l-0.022,0.247l-0.022,0.246l-0.025,0.246l-0.025,0.246l-0.028,0.245l-0.028,0.244l-0.031,0.244l-0.031,0.244l-0.034,0.243l-0.034,0.243l-0.037,0.242l-0.037,0.242l-0.04,0.241l-0.04,0.241l-0.043,0.24l-0.043,0.24l-0.045,0.239l-0.047,0.239l-0.048,0.238l-0.049,0.237l-0.051,0.238l-0.053,0.236l-0.053,0.236l-0.056,0.236l-0.056,0.235l-0.058,0.234l-0.06,0.234l-0.061,0.233l-0.062,0.233l-0.063,0.232l-0.066,0.232l-0.066,0.231l-0.068,0.23l-0.069,0.23l-0.071,0.229l-0.072,0.229l-0.073,0.228l-0.075,0.227l-0.076,0.227l-0.077,0.226l-0.079,0.226l-0.08,0.224l-0.081,0.225l-0.083,0.223l-0.084,0.223l-0.085,0.223l-0.087,0.221l-0.088,0.221l-0.089,0.221l-0.091,0.219l-0.092,0.219l-0.093,0.219l-0.095,0.217l-0.095,0.217l-0.097,0.217l-0.099,0.215l-0.099,0.215l-0.101,0.214l-0.102,0.214l-0.104,0.213l-0.104,0.212l-0.106,0.211l-0.107,0.21l-0.109,0.21l-0.109,0.209l-0.111,0.209l-0.112,0.207l-0.113,0.207l-0.115,0.206l-0.115,0.206l-0.117,0.204l-0.118,0.204l-0.119,0.203l-0.121,0.202l-0.122,0.202l-0.122,0.2l-0.124,0.2l-0.125,0.199l-0.127,0.198l-0.127,0.198l-0.129,0.196l-0.129,0.196l-0.131,0.195l-0.132,0.194l-0.134,0.193l-0.134,0.193l-0.135,0.191l-0.137,0.191l-0.138,0.19l-0.138,0.189l-0.14,0.188l-0.141,0.187l-0.142,0.187l-0.143,0.185l-0.145,0.185l-0.145,0.184l-0.146,0.183l-0.148,0.182l-0.148,0.181l-0.15,0.18l-0.151,0.179l-0.151,0.178l-0.153,0.178l-0.154,0.176l-0.155,0.176l-0.156,0.174l-0.157,0.174l-0.157,0.173l-0.159,0.171l-0.16,0.171l-0.161,0.17l-0.162,0.169l-0.163,0.168l-0.164,0.167l-0.165,0.166l-0.166,0.165l-0.167,0.164l-0.168,0.163l-0.169,0.162l-0.17,0.161l-0.171,0.16l-0.171,0.159l-0.173,0.157l-0.174,0.157l-0.174,0.156l-0.176,0.155l-0.176,0.154l-0.178,0.153l-0.178,0.151l-0.179,0.151l-0.18,0.15l-0.181,0.148l-0.182,0.148l-0.183,0.146l-0.184,0.145l-0.185,0.145l-0.185,0.143l-0.187,0.142l-0.187,0.141l-0.188,0.14l-0.189,0.138l-0.19,0.138l-0.191,0.137l-0.191,0.135l-0.193,0.134l-0.193,0.134l-0.194,0.132l-0.195,0.131l-0.196,0.129l-0.196,0.129l-0.198,0.127l-0.198,0.127l-0.199,0.125l-0.2,0.124l-0.2,0.122l-0.202,0.122l-0.202,0.121l-0.203,0.119l-0.204,0.118l-0.204,0.117l-0.206,0.115l-0.206,0.115l-0.207,0.113l-0.207,0.112l-0.209,0.111l-0.209,0.109l-0.21,0.109l-0.21,0.107l-0.211,0.106l-0.212,0.104l-0.213,0.104l-0.214,0.102l-0.214,0.101l-0.215,0.099l-0.215,0.099l-0.217,0.097l-0.217,0.095l-0.217,0.095l-0.219,0.093l-0.219,0.092l-0.219,0.091l-0.221,0.089l-0.221,0.088l-0.221,0.087l-0.223,0.085l-0.223,0.084l-0.223,0.083l-0.225,0.081l-0.224,0.08l-0.226,0.079l-0.226,0.077l-0.227,0.076l-0.227,0.075l-0.228,0.073l-0.229,0.072l-0.229,0.071l-0.23,0.069l-0.23,0.068l-0.231,0.066l-0.232,0.066l-0.232,0.063l-0.233,0.062l-0.233,0.061l-0.234,0.06l-0.234,0.058l-0.235,0.056l-0.236,0.056l-0.236,0.053l-0.236,0.053l-0.238,0.051l-0.237,0.049l-0.238,0.048l-0.239,0.047l-0.239,0.045l-0.24,0.043l-0.24,0.043l-0.241,0.04l-0.241,0.04l-0.242,0.037l-0.242,0.037l-0.243,0.034l-0.243,0.034l-0.244,0.031l-0.244,0.031l-0.244,0.028l-0.245,0.028l-0.246,0.025l-0.246,0.025l-0.246,0.022l-0.247,0.022l-0.247,0.019l-0.248,0.018l-0.248,0.017l-0.248,0.015l-0.249,0.013l-0.25,0.012l-0.249,0.01l-0.251,0.009l-0.25,0.007l-0.251,0.006l-0.251,0.004l-0.252,0.002l-0.252,0.001l-0.252,-0.001l-0.252,-0.002l-0.251,-0.004l-0.251,-0.006l-0.25,-0.007l-0.251,-0.009l-0.249,-0.01l-0.25,-0.012l-0.249,-0.013l-0.248,-0.015l-0.248,-0.017l-0.248,-0.018l-0.247,-0.019l-0.247,-0.022l-0.246,-0.022l-0.246,-0.025l-0.246,-0.025l-0.245,-0.028l-0.244,-0.028l-0.244,-0.031l-0.244,-0.031l-0.243,-0.034l-0.243,-0.034l-0.242,-0.037l-0.242,-0.037l-0.241,-0.04l-0.241,-0.04l-0.24,-0.043l-0.24,-0.043l-0.239,-0.045l-0.239,-0.047l-0.238,-0.048l-0.237,-0.049l-0.238,-0.051l-0.236,-0.053l-0.236,-0.053l-0.236,-0.056l-0.235,-0.056l-0.234,-0.058l-0.234,-0.06l-0.233,-0.061l-0.233,-0.062l-0.232,-0.063l-0.232,-0.066l-0.231,-0.066l-0.23,-0.068l-0.23,-0.069l-0.229,-0.071l-0.229,-0.072l-0.228,-0.073l-0.227,-0.075l-0.227,-0.076l-0.226,-0.077l-0.226,-0.079l-0.224,-0.08l-0.225,-0.081l-0.223,-0.083l-0.223,-0.084l-0.223,-0.085l-0.221,-0.087l-0.221,-0.088l-0.221,-0.089l-0.219,-0.091l-0.219,-0.092l-0.219,-0.093l-0.217,-0.095l-0.217,-0.095l-0.217,-0.097l-0.215,-0.099l-0.215,-0.099l-0.214,-0.101l-0.214,-0.102l-0.213,-0.104l-0.212,-0.104l-0.211,-0.106l-0.21,-0.107l-0.21,-0.109l-0.209,-0.109l-0.209,-0.111l-0.207,-0.112l-0.207,-0.113l-0.206,-0.115l-0.206,-0.115l-0.204,-0.117l-0.204,-0.118l-0.203,-0.119l-0.202,-0.121l-0.202,-0.122l-0.2,-0.122l-0.2,-0.124l-0.199,-0.125l-0.198,-0.127l-0.198,-0.127l-0.196,-0.129l-0.196,-0.129l-0.195,-0.131l-0.194,-0.132l-0.193,-0.134l-0.193,-0.134l-0.191,-0.135l-0.191,-0.137l-0.19,-0.138l-0.189,-0.138l-0.188,-0.14l-0.187,-0.141l-0.187,-0.142l-0.185,-0.143l-0.185,-0.145l-0.184,-0.145l-0.183,-0.146l-0.182,-0.148l-0.181,-0.148l-0.18,-0.15l-0.179,-0.151l-0.178,-0.151l-0.178,-0.153l-0.176,-0.154l-0.176,-0.155l-0.174,-0.156l-0.174,-0.157l-0.173,-0.157l-0.171,-0.159l-0.171,-0.16l-0.17,-0.161l-0.169,-0.162l-0.168,-0.163l-0.167,-0.164l-0.166,-0.165l-0.165,-0.166l-0.164,-0.167l-0.163,-0.168l-0.162,-0.169l-0.161,-0.17l-0.16,-0.171l-0.159,-0.171l-0.157,-0.173l-0.157,-0.174l-0.156,-0.174l-0.155,-0.176l-0.154,-0.176l-0.153,-0.178l-0.151,-0.178l-0.151,-0.179l-0.15,-0.18l-0.148,-0.181l-0.148,-0.182l-0.146,-0.183l-0.145,-0.184l-0.145,-0.185l-0.143,-0.185l-0.142,-0.187l-0.141,-0.187l-0.14,-0.188l-0.138,-0.189l-0.138,-0.19l-0.137,-0.191l-0.135,-0.191l-0.134,-0.193l-0.134,-0.193l-0.132,-0.194l-0.131,-0.195l-0.129,-0.196l-0.129,-0.196l-0.127,-0.198l-0.127,-0.198l-0.125,-0.199l-0.124,-0.2l-0.122,-0.2l-0.122,-0.202l-0.121,-0.202l-0.119,-0.203l-0.118,-0.204l-0.117,-0.204l-0.115,-0.206l-0.115,-0.206l-0.113,-0.207l-0.112,-0.207l-0.111,-0.209l-0.109,-0.209l-0.109,-0.21l-0.107,-0.21l-0.106,-0.211l-0.104,-0.212l-0.104,-0.213l-0.102,-0.214l-0.101,-0.214l-0.099,-0.215l-0.099,-0.215l-0.097,-0.217l-0.095,-0.217l-0.095,-0.217l-0.093,-0.219l-0.092,-0.219l-0.091,-0.219l-0.089,-0.221l-0.088,-0.221l-0.087,-0.221l-0.085,-0.223l-0.084,-0.223l-0.083,-0.223l-0.081,-0.225l-0.08,-0.224l-0.079,-0.226l-0.077,-0.226l-0.076,-0.227l-0.075,-0.227l-0.073,-0.228l-0.072,-0.229l-0.071,-0.229l-0.069,-0.23l-0.068,-0.23l-0.066,-0.231l-0.066,-0.232l-0.063,-0.232l-0.062,-0.233l-0.061,-0.233l-0.06,-0.234l-0.058,-0.234l-0.056,-0.235l-0.056,-0.236l-0.053,-0.236l-0.053,-0.236l-0.051,-0.238l-0.049,-0.237l-0.048,-0.238l-0.047,-0.239l-0.045,-0.239l-0.043,-0.24l-0.043,-0.24l-0.04,-0.241l-0.04,-0.241l-0.037,-0.242l-0.037,-0.242l-0.034,-0.243l-0.034,-0.243l-0.031,-0.244l-0.031,-0.244l-0.028,-0.244l-0.028,-0.245l-0.025,-0.246l-0.025,-0.246l-0.022,-0.246l-0.022,-0.247l-0.019,-0.247l-0.018,-0.248l-0.017,-0.248l-0.015,-0.248l-0.013,-0.249l-0.012,-0.25l-0.01,-0.249l-0.009,-0.251l-0.007,-0.25l-0.006,-0.251l-0.004,-0.251l-0.002,-0.252l-0.001,-0.252l0.001,-0.252l0.002,-0.252l0.004,-0.251l0.006,-0.251l0.007,-0.25l0.009,-0.251l0.01,-0.249l0.012,-0.25l0.013,-0.249l0.015,-0.248l0.017,-0.248l0.018,-0.248l0.019,-0.247l0.022,-0.247l0.022,-0.246l0.025,-0.246l0.025,-0.246l0.028,-0.245l0.028,-0.244l0.031,-0.244l0.031,-0.244l0.034,-0.243l0.034,-0.243l0.037,-0.242l0.037,-0.242l0.04,-0.241l0.04,-0.241l0.043,-0.24l0.043,-0.24l0.045,-0.239l0.047,-0.239l0.048,-0.238l0.049,-0.237l0.051,-0.238l0.053,-0.236l0.053,-0.236l0.056,-0.236l0.056,-0.235l0.058,-0.234l0.06,-0.234l0.061,-0.233l0.062,-0.233l0.063,-0.232l0.066,-0.232l0.066,-0.231l0.068,-0.23l0.069,-0.23l0.071,-0.229l0.072,-0.229l0.073,-0.228l0.075,-0.227l0.076,-0.227l0.077,-0.226l0.079,-0.226l0.08,-0.224l0.081,-0.225l0.083,-0.223l0.084,-0.223l0.085,-0.223l0.087,-0.221l0.088,-0.221l0.089,-0.221l0.091,-0.219l0.092,-0.219l0.093,-0.219l0.095,-0.217l0.095,-0.217l0.097,-0.217l0.099,-0.215l0.099,-0.215l0.101,-0.214l0.102,-0.214l0.104,-0.213l0.104,-0.212l0.106,-0.211l0.107,-0.21l0.109,-0.21l0.109,-0.209l0.111,-0.209l0.112,-0.207l0.113,-0.207l0.115,-0.206l0.115,-0.206l0.117,-0.204l0.118,-0.204l0.119,-0.203l0.121,-0.202l0.122,-0.202l0.122,-0.2l0.124,-0.2l0.125,-0.199l0.127,-0.198l0.127,-0.198l0.129,-0.196l0.129,-0.196l0.131,-0.195l0.132,-0.194l0.134,-0.193l0.134,-0.193l0.135,-0.191l0.137,-0.191l0.138,-0.19l0.138,-0.189l0.14,-0.188l0.141,-0.187l0.142,-0.187l0.143,-0.185l0.145,-0.185l0.145,-0.184l0.146,-0.183l0.148,-0.182l0.148,-0.181l0.15,-0.18l0.151,-0.179l0.151,-0.178l0.153,-0.178l0.154,-0.176l0.155,-0.176l0.156,-0.174l0.157,-0.174l0.157,-0.173l0.159,-0.171l0.16,-0.171l0.161,-0.17l0.162,-0.169l0.163,-0.168l0.164,-0.167l0.165,-0.166l0.166,-0.165l0.167,-0.164l0.168,-0.163l0.169,-0.162l0.17,-0.161l0.171,-0.16l0.171,-0.159l0.173,-0.157l0.174,-0.157l0.174,-0.156l0.176,-0.155l0.176,-0.154l0.178,-0.153l0.178,-0.151l0.179,-0.151l0.18,-0.15l0.181,-0.148l0.182,-0.148l0.183,-0.146l0.184,-0.145l0.185,-0.145l0.185,-0.143l0.187,-0.142l0.187,-0.141l0.188,-0.14l0.189,-0.138l0.19,-0.138l0.191,-0.137l0.191,-0.135l0.193,-0.134l0.193,-0.134l0.194,-0.132l0.195,-0.131l0.196,-0.129l0.196,-0.129l0.198,-0.127l0.198,-0.127l0.199,-0.125l0.2,-0.124l0.2,-0.122l0.202,-0.122l0.202,-0.121l0.203,-0.119l0.204,-0.118l0.204,-0.117l0.206,-0.115l0.206,-0.115l0.207,-0.113l0.207,-0.112l0.209,-0.111l0.209,-0.109l0.21,-0.109l0.21,-0.107l0.211,-0.106l0.212,-0.104l0.213,-0.104l0.214,-0.102l0.214,-0.101l0.215,-0.099l0.215,-0.099l0.217,-0.097l0.217,-0.095l0.217,-0.095l0.219,-0.093l0.219,-0.092l0.219,-0.091l0.221,-0.089l0.221,-0.088l0.221,-0.087l0.223,-0.085l0.223,-0.084l0.223,-0.083l0.225,-0.081l0.224,-0.08l0.226,-0.079l0.226,-0.077l0.227,-0.076l0.227,-0.075l0.228,-0.073l0.229,-0.072l0.229,-0.071l0.23,-0.069l0.23,-0.068l0.231,-0.066l0.232,-0.066l0.232,-0.063l0.233,-0.062l0.233,-0.061l0.234,-0.06l0.234,-0.058l0.235,-0.056l0.236,-0.056l0.236,-0.053l0.236,-0.053l0.238,-0.051l0.237,-0.049l0.238,-0.048l0.239,-0.047l0.239,-0.045l0.24,-0.043l0.24,-0.043l0.241,-0.04l0.241,-0.04l0.242,-0.037l0.242,-0.037l0.243,-0.034l0.243,-0.034l0.244,-0.031l0.244,-0.031l0.244,-0.028l0.245,-0.028l0.246,-0.025l0.246,-0.025l0.246,-0.022l0.247,-0.022l0.247,-0.019l0.248,-0.018l0.248,-0.017l0.248,-0.015l0.249,-0.013l0.25,-0.012l0.249,-0.01l0.251,-0.009l0.25,-0.007l0.251,-0.006l0.251,-0.004l0.252,-0.002l0.252,-0.001l0.252,0.001Zm-0.428,12l-0.176,0.001l-0.175,0.003l-0.175,0.004l-0.174,0.005l-0.174,0.006l-0.174,0.007l-0.173,0.008l-0.173,0.01l-0.173,0.01l-0.172,0.012l-0.172,0.012l-0.172,0.014l-0.171,0.014l-0.171,0.016l-0.17,0.017l-0.17,0.018l-0.17,0.019l-0.169,0.02l-0.169,0.021l-0.169,0.022l-0.168,0.023l-0.168,0.024l-0.167,0.025l-0.167,0.026l-0.167,0.027l-0.166,0.028l-0.166,0.029l-0.166,0.03l-0.165,0.032l-0.165,0.032l-0.164,0.033l-0.165,0.034l-0.163,0.035l-0.163,0.036l-0.163,0.037l-0.163,0.038l-0.162,0.04l-0.162,0.04l-0.161,0.041l-0.161,0.042l-0.16,0.042l-0.161,0.044l-0.159,0.045l-0.16,0.046l-0.159,0.047l-0.158,0.048l-0.158,0.048l-0.158,0.05l-0.157,0.05l-0.157,0.052l-0.156,0.052l-0.156,0.054l-0.156,0.054l-0.155,0.055l-0.155,0.057l-0.154,0.057l-0.154,0.058l-0.153,0.059l-0.153,0.059l-0.153,0.061l-0.152,0.062l-0.152,0.062l-0.151,0.064l-0.151,0.064l-0.15,0.065l-0.15,0.067l-0.149,0.067l-0.149,0.067l-0.149,0.069l-0.148,0.07l-0.147,0.071l-0.147,0.071l-0.147,0.072l-0.146,0.073l-0.145,0.075l-0.145,0.074l-0.145,0.076l-0.144,0.077l-0.144,0.077l-0.143,0.079l-0.142,0.079l-0.143,0.08l-0.141,0.081l-0.141,0.082l-0.141,0.082l-0.14,0.083l-0.139,0.085l-0.139,0.085l-0.139,0.086l-0.137,0.086l-0.138,0.088l-0.137,0.088l-0.136,0.089l-0.135,0.09l-0.136,0.091l-0.134,0.091l-0.134,0.093l-0.134,0.093l-0.132,0.094l-0.133,0.094l-0.131,0.096l-0.132,0.096l-0.13,0.097l-0.13,0.098l-0.129,0.099l-0.129,0.099l-0.128,0.1l-0.128,0.101l-0.127,0.101l-0.126,0.103l-0.126,0.103l-0.125,0.104l-0.124,0.104l-0.124,0.106l-0.123,0.106l-0.123,0.107l-0.122,0.107l-0.121,0.108l-0.12,0.109l-0.12,0.11l-0.12,0.11l-0.118,0.112l-0.118,0.111l-0.118,0.113l-0.116,0.113l-0.116,0.114l-0.115,0.115l-0.115,0.115l-0.114,0.116l-0.113,0.116l-0.113,0.118l-0.111,0.118l-0.112,0.118l-0.11,0.12l-0.11,0.12l-0.109,0.12l-0.108,0.121l-0.107,0.122l-0.107,0.123l-0.106,0.123l-0.106,0.124l-0.104,0.124l-0.104,0.125l-0.103,0.126l-0.103,0.126l-0.101,0.127l-0.101,0.128l-0.1,0.128l-0.099,0.129l-0.099,0.129l-0.098,0.13l-0.097,0.13l-0.096,0.132l-0.096,0.131l-0.094,0.133l-0.094,0.132l-0.093,0.134l-0.093,0.134l-0.091,0.134l-0.091,0.136l-0.09,0.135l-0.089,0.136l-0.088,0.137l-0.088,0.138l-0.086,0.137l-0.086,0.139l-0.085,0.139l-0.085,0.139l-0.083,0.14l-0.082,0.141l-0.082,0.141l-0.081,0.141l-0.08,0.143l-0.079,0.142l-0.079,0.143l-0.077,0.144l-0.077,0.144l-0.076,0.145l-0.074,0.145l-0.075,0.145l-0.073,0.146l-0.072,0.147l-0.071,0.147l-0.071,0.147l-0.07,0.148l-0.069,0.149l-0.067,0.149l-0.067,0.149l-0.067,0.15l-0.065,0.15l-0.064,0.151l-0.064,0.151l-0.062,0.152l-0.062,0.152l-0.061,0.153l-0.059,0.153l-0.059,0.153l-0.058,0.154l-0.057,0.154l-0.057,0.155l-0.055,0.155l-0.054,0.156l-0.054,0.156l-0.052,0.156l-0.052,0.157l-0.05,0.157l-0.05,0.158l-0.048,0.158l-0.048,0.158l-0.047,0.159l-0.046,0.16l-0.045,0.159l-0.044,0.161l-0.042,0.16l-0.042,0.161l-0.041,0.161l-0.04,0.162l-0.04,0.162l-0.038,0.163l-0.037,0.163l-0.036,0.163l-0.035,0.163l-0.034,0.165l-0.033,0.164l-0.032,0.165l-0.032,0.165l-0.03,0.166l-0.029,0.166l-0.028,0.166l-0.027,0.167l-0.026,0.167l-0.025,0.167l-0.024,0.168l-0.023,0.168l-0.022,0.169l-0.021,0.169l-0.02,0.169l-0.019,0.17l-0.018,0.17l-0.017,0.17l-0.016,0.171l-0.014,0.171l-0.014,0.172l-0.012,0.172l-0.012,0.172l-0.01,0.173l-0.01,0.173l-0.008,0.173l-0.007,0.174l-0.006,0.174l-0.005,0.174l-0.004,0.175l-0.003,0.175l-0.001,0.176l-0.001,0.176l0.001,0.176l0.001,0.176l0.003,0.175l0.004,0.175l0.005,0.174l0.006,0.174l0.007,0.174l0.008,0.173l0.01,0.173l0.01,0.173l0.012,0.172l0.012,0.172l0.014,0.172l0.014,0.171l0.016,0.171l0.017,0.17l0.018,0.17l0.019,0.17l0.02,0.169l0.021,0.169l0.022,0.169l0.023,0.168l0.024,0.168l0.025,0.167l0.026,0.167l0.027,0.167l0.028,0.166l0.029,0.166l0.03,0.166l0.032,0.165l0.032,0.165l0.033,0.165l0.034,0.164l0.035,0.163l0.036,0.163l0.037,0.163l0.038,0.163l0.04,0.162l0.04,0.162l0.041,0.161l0.042,0.161l0.042,0.16l0.044,0.161l0.045,0.159l0.046,0.16l0.047,0.159l0.048,0.158l0.048,0.158l0.05,0.158l0.05,0.157l0.052,0.157l0.052,0.156l0.054,0.156l0.054,0.156l0.055,0.155l0.057,0.155l0.057,0.154l0.058,0.154l0.059,0.153l0.059,0.153l0.061,0.153l0.062,0.152l0.062,0.152l0.064,0.151l0.064,0.151l0.065,0.15l0.067,0.15l0.067,0.149l0.067,0.149l0.069,0.149l0.07,0.148l0.071,0.147l0.071,0.147l0.072,0.147l0.073,0.146l0.075,0.145l0.074,0.145l0.076,0.145l0.077,0.144l0.077,0.144l0.079,0.143l0.079,0.143l0.08,0.142l0.081,0.141l0.081,0.141l0.083,0.141l0.083,0.14l0.085,0.139l0.085,0.139l0.086,0.139l0.086,0.137l0.088,0.138l0.088,0.137l0.089,0.136l0.09,0.135l0.091,0.136l0.091,0.134l0.093,0.134l0.093,0.134l0.094,0.132l0.094,0.133l0.096,0.131l0.096,0.132l0.097,0.13l0.098,0.13l0.099,0.129l0.099,0.129l0.1,0.128l0.101,0.128l0.101,0.127l0.103,0.126l0.103,0.126l0.104,0.125l0.104,0.124l0.106,0.124l0.106,0.123l0.107,0.123l0.107,0.122l0.108,0.121l0.109,0.121l0.11,0.119l0.11,0.12l0.112,0.118l0.111,0.118l0.113,0.118l0.113,0.116l0.114,0.116l0.115,0.115l0.115,0.115l0.116,0.114l0.116,0.113l0.118,0.113l0.118,0.111l0.118,0.112l0.12,0.11l0.119,0.11l0.121,0.109l0.121,0.108l0.122,0.107l0.123,0.107l0.123,0.106l0.124,0.106l0.124,0.104l0.125,0.104l0.126,0.103l0.126,0.102l0.127,0.102l0.128,0.101l0.128,0.1l0.129,0.099l0.129,0.099l0.13,0.098l0.13,0.097l0.131,0.096l0.132,0.096l0.133,0.094l0.132,0.094l0.134,0.093l0.134,0.093l0.135,0.091l0.135,0.091l0.135,0.09l0.136,0.089l0.137,0.088l0.138,0.088l0.137,0.086l0.139,0.086l0.139,0.085l0.139,0.085l0.14,0.083l0.141,0.082l0.141,0.082l0.141,0.081l0.143,0.08l0.142,0.079l0.143,0.079l0.144,0.077l0.144,0.077l0.145,0.076l0.145,0.074l0.145,0.075l0.146,0.073l0.147,0.072l0.147,0.071l0.147,0.071l0.148,0.07l0.149,0.069l0.149,0.067l0.149,0.067l0.15,0.067l0.15,0.065l0.151,0.064l0.151,0.064l0.152,0.062l0.152,0.062l0.152,0.061l0.153,0.059l0.154,0.059l0.154,0.058l0.154,0.058l0.155,0.056l0.155,0.055l0.156,0.054l0.156,0.054l0.156,0.052l0.157,0.052l0.157,0.05l0.158,0.05l0.158,0.048l0.159,0.048l0.158,0.047l0.16,0.046l0.159,0.045l0.16,0.043l0.161,0.043l0.161,0.042l0.161,0.041l0.162,0.04l0.162,0.04l0.163,0.038l0.162,0.037l0.164,0.036l0.163,0.035l0.165,0.034l0.164,0.033l0.165,0.032l0.165,0.032l0.165,0.03l0.166,0.029l0.167,0.028l0.167,0.027l0.167,0.026l0.167,0.025l0.168,0.024l0.168,0.023l0.169,0.022l0.169,0.021l0.169,0.02l0.17,0.019l0.17,0.018l0.17,0.017l0.171,0.016l0.171,0.014l0.172,0.014l0.172,0.012l0.172,0.012l0.173,0.01l0.173,0.01l0.173,0.008l0.174,0.007l0.174,0.006l0.174,0.005l0.175,0.004l0.175,0.003l0.176,0.001l0.176,0.001l0.176,-0.001l0.176,-0.001l0.175,-0.003l0.175,-0.004l0.174,-0.005l0.174,-0.006l0.174,-0.007l0.173,-0.008l0.173,-0.01l0.173,-0.01l0.172,-0.012l0.172,-0.012l0.172,-0.014l0.171,-0.014l0.171,-0.016l0.17,-0.017l0.17,-0.018l0.17,-0.019l0.169,-0.02l0.169,-0.021l0.169,-0.022l0.168,-0.023l0.168,-0.024l0.167,-0.025l0.167,-0.026l0.167,-0.027l0.167,-0.028l0.166,-0.029l0.165,-0.03l0.165,-0.032l0.165,-0.032l0.164,-0.033l0.165,-0.034l0.163,-0.035l0.164,-0.036l0.162,-0.037l0.163,-0.038l0.162,-0.04l0.162,-0.04l0.161,-0.041l0.161,-0.042l0.16,-0.042l0.161,-0.044l0.159,-0.045l0.16,-0.046l0.158,-0.047l0.159,-0.048l0.158,-0.048l0.158,-0.05l0.157,-0.05l0.157,-0.052l0.156,-0.052l0.156,-0.054l0.156,-0.054l0.155,-0.055l0.155,-0.056l0.154,-0.058l0.154,-0.058l0.154,-0.059l0.153,-0.059l0.152,-0.061l0.152,-0.062l0.152,-0.062l0.151,-0.064l0.151,-0.064l0.15,-0.065l0.15,-0.067l0.149,-0.067l0.149,-0.067l0.149,-0.069l0.148,-0.07l0.147,-0.071l0.147,-0.071l0.147,-0.072l0.146,-0.073l0.145,-0.075l0.145,-0.074l0.145,-0.076l0.144,-0.077l0.144,-0.077l0.143,-0.079l0.142,-0.079l0.143,-0.08l0.141,-0.081l0.141,-0.082l0.141,-0.082l0.14,-0.083l0.139,-0.085l0.139,-0.085l0.139,-0.086l0.137,-0.086l0.138,-0.088l0.137,-0.088l0.136,-0.089l0.135,-0.09l0.135,-0.091l0.135,-0.091l0.134,-0.093l0.134,-0.093l0.132,-0.094l0.133,-0.094l0.132,-0.096l0.131,-0.096l0.13,-0.097l0.13,-0.098l0.129,-0.099l0.129,-0.099l0.128,-0.1l0.128,-0.101l0.127,-0.102l0.126,-0.102l0.126,-0.103l0.125,-0.104l0.124,-0.104l0.124,-0.106l0.123,-0.106l0.123,-0.107l0.122,-0.107l0.121,-0.108l0.121,-0.109l0.119,-0.11l0.12,-0.11l0.118,-0.112l0.118,-0.111l0.118,-0.113l0.116,-0.113l0.116,-0.114l0.115,-0.115l0.115,-0.115l0.114,-0.116l0.113,-0.116l0.113,-0.118l0.111,-0.118l0.112,-0.118l0.11,-0.12l0.11,-0.119l0.109,-0.121l0.108,-0.121l0.107,-0.122l0.107,-0.123l0.106,-0.123l0.106,-0.124l0.104,-0.124l0.104,-0.125l0.103,-0.126l0.102,-0.126l0.102,-0.127l0.101,-0.128l0.1,-0.128l0.099,-0.129l0.099,-0.129l0.098,-0.13l0.097,-0.13l0.096,-0.131l0.096,-0.132l0.094,-0.133l0.094,-0.132l0.093,-0.134l0.093,-0.134l0.091,-0.135l0.091,-0.135l0.09,-0.135l0.089,-0.136l0.088,-0.137l0.088,-0.138l0.086,-0.137l0.086,-0.139l0.085,-0.139l0.085,-0.139l0.083,-0.14l0.082,-0.141l0.082,-0.141l0.081,-0.141l0.08,-0.143l0.079,-0.142l0.079,-0.143l0.077,-0.144l0.077,-0.144l0.076,-0.145l0.074,-0.145l0.075,-0.145l0.073,-0.146l0.072,-0.147l0.071,-0.147l0.071,-0.147l0.07,-0.148l0.069,-0.149l0.067,-0.149l0.067,-0.149l0.067,-0.15l0.065,-0.15l0.064,-0.151l0.064,-0.151l0.062,-0.152l0.062,-0.152l0.061,-0.152l0.059,-0.153l0.059,-0.154l0.058,-0.154l0.058,-0.154l0.056,-0.155l0.055,-0.155l0.054,-0.156l0.054,-0.156l0.052,-0.156l0.052,-0.157l0.05,-0.157l0.05,-0.158l0.048,-0.158l0.048,-0.159l0.047,-0.158l0.046,-0.16l0.045,-0.159l0.044,-0.161l0.042,-0.16l0.042,-0.161l0.041,-0.161l0.04,-0.162l0.04,-0.162l0.038,-0.163l0.037,-0.162l0.036,-0.164l0.035,-0.163l0.034,-0.165l0.033,-0.164l0.032,-0.165l0.032,-0.165l0.03,-0.165l0.029,-0.166l0.028,-0.167l0.027,-0.167l0.026,-0.167l0.025,-0.167l0.024,-0.168l0.023,-0.168l0.022,-0.169l0.021,-0.169l0.02,-0.169l0.019,-0.17l0.018,-0.17l0.017,-0.17l0.016,-0.171l0.014,-0.171l0.014,-0.172l0.012,-0.172l0.012,-0.172l0.01,-0.173l0.01,-0.173l0.008,-0.173l0.007,-0.174l0.006,-0.174l0.005,-0.174l0.004,-0.175l0.003,-0.175l0.001,-0.176l0.001,-0.176l-0.001,-0.176l-0.001,-0.176l-0.003,-0.175l-0.004,-0.175l-0.005,-0.174l-0.006,-0.174l-0.007,-0.174l-0.008,-0.173l-0.01,-0.173l-0.01,-0.173l-0.012,-0.172l-0.012,-0.172l-0.014,-0.172l-0.014,-0.171l-0.016,-0.171l-0.017,-0.17l-0.018,-0.17l-0.019,-0.17l-0.02,-0.169l-0.021,-0.169l-0.022,-0.169l-0.023,-0.168l-0.024,-0.168l-0.025,-0.167l-0.026,-0.167l-0.027,-0.167l-0.028,-0.167l-0.029,-0.166l-0.03,-0.165l-0.032,-0.165l-0.032,-0.165l-0.033,-0.164l-0.034,-0.165l-0.035,-0.163l-0.036,-0.164l-0.037,-0.162l-0.038,-0.163l-0.04,-0.162l-0.04,-0.162l-0.041,-0.161l-0.042,-0.161l-0.043,-0.161l-0.043,-0.16l-0.045,-0.159l-0.046,-0.16l-0.047,-0.158l-0.048,-0.159l-0.048,-0.158l-0.05,-0.158l-0.05,-0.157l-0.052,-0.157l-0.052,-0.156l-0.054,-0.156l-0.054,-0.156l-0.055,-0.155l-0.056,-0.155l-0.058,-0.154l-0.058,-0.154l-0.059,-0.154l-0.059,-0.153l-0.061,-0.152l-0.062,-0.152l-0.062,-0.152l-0.064,-0.151l-0.064,-0.151l-0.065,-0.15l-0.067,-0.15l-0.067,-0.149l-0.067,-0.149l-0.069,-0.149l-0.07,-0.148l-0.071,-0.147l-0.071,-0.147l-0.072,-0.147l-0.073,-0.146l-0.075,-0.145l-0.074,-0.145l-0.076,-0.145l-0.077,-0.144l-0.077,-0.144l-0.079,-0.143l-0.079,-0.142l-0.08,-0.143l-0.081,-0.141l-0.082,-0.141l-0.082,-0.141l-0.083,-0.14l-0.085,-0.139l-0.085,-0.139l-0.086,-0.139l-0.086,-0.137l-0.088,-0.138l-0.088,-0.137l-0.089,-0.136l-0.09,-0.135l-0.091,-0.135l-0.091,-0.135l-0.093,-0.134l-0.093,-0.134l-0.094,-0.132l-0.094,-0.133l-0.096,-0.132l-0.096,-0.131l-0.097,-0.13l-0.098,-0.13l-0.099,-0.129l-0.099,-0.129l-0.1,-0.128l-0.101,-0.128l-0.102,-0.127l-0.102,-0.126l-0.103,-0.126l-0.104,-0.125l-0.104,-0.124l-0.106,-0.124l-0.106,-0.123l-0.107,-0.123l-0.107,-0.122l-0.108,-0.121l-0.109,-0.121l-0.11,-0.119l-0.11,-0.12l-0.112,-0.118l-0.111,-0.118l-0.113,-0.118l-0.113,-0.116l-0.114,-0.116l-0.115,-0.115l-0.115,-0.115l-0.116,-0.114l-0.116,-0.113l-0.118,-0.113l-0.118,-0.111l-0.118,-0.112l-0.12,-0.11l-0.119,-0.11l-0.121,-0.109l-0.121,-0.108l-0.122,-0.107l-0.123,-0.107l-0.123,-0.106l-0.124,-0.106l-0.124,-0.104l-0.125,-0.104l-0.126,-0.103l-0.126,-0.103l-0.127,-0.101l-0.128,-0.101l-0.128,-0.1l-0.129,-0.099l-0.129,-0.099l-0.13,-0.098l-0.13,-0.097l-0.132,-0.096l-0.131,-0.096l-0.133,-0.094l-0.132,-0.094l-0.134,-0.093l-0.134,-0.093l-0.134,-0.091l-0.136,-0.091l-0.135,-0.09l-0.136,-0.089l-0.137,-0.088l-0.138,-0.088l-0.137,-0.086l-0.139,-0.086l-0.139,-0.085l-0.139,-0.085l-0.14,-0.083l-0.141,-0.083l-0.141,-0.081l-0.141,-0.081l-0.142,-0.08l-0.143,-0.079l-0.143,-0.079l-0.144,-0.077l-0.144,-0.077l-0.145,-0.076l-0.145,-0.074l-0.145,-0.075l-0.146,-0.073l-0.147,-0.072l-0.147,-0.071l-0.147,-0.071l-0.148,-0.07l-0.149,-0.069l-0.149,-0.067l-0.149,-0.067l-0.15,-0.067l-0.15,-0.065l-0.151,-0.064l-0.151,-0.064l-0.152,-0.062l-0.152,-0.062l-0.153,-0.061l-0.153,-0.059l-0.153,-0.059l-0.154,-0.058l-0.154,-0.057l-0.155,-0.057l-0.155,-0.055l-0.156,-0.054l-0.156,-0.054l-0.156,-0.052l-0.157,-0.052l-0.157,-0.05l-0.158,-0.05l-0.158,-0.048l-0.158,-0.048l-0.159,-0.047l-0.16,-0.046l-0.159,-0.045l-0.161,-0.044l-0.16,-0.042l-0.161,-0.042l-0.161,-0.041l-0.162,-0.04l-0.162,-0.04l-0.163,-0.038l-0.163,-0.037l-0.163,-0.036l-0.163,-0.035l-0.164,-0.034l-0.165,-0.033l-0.165,-0.032l-0.165,-0.032l-0.166,-0.03l-0.166,-0.029l-0.166,-0.028l-0.167,-0.027l-0.167,-0.026l-0.167,-0.025l-0.168,-0.024l-0.168,-0.023l-0.169,-0.022l-0.169,-0.021l-0.169,-0.02l-0.17,-0.019l-0.17,-0.018l-0.17,-0.017l-0.171,-0.016l-0.171,-0.014l-0.172,-0.014l-0.172,-0.012l-0.172,-0.012l-0.173,-0.01l-0.173,-0.01l-0.173,-0.008l-0.174,-0.007l-0.174,-0.006l-0.174,-0.005l-0.175,-0.004l-0.175,-0.003l-0.176,-0.001l-0.176,-0.001l-0.176,0.001Z"/></svg>