<svg id="Capa_1" xmlns="http://www.w3.org/2000/svg" viewBox="0 0 15 30"><style>.st0{fill:#fff}</style><title>temp_icon</title><path class="st0" d="M12 2.5V1.4c0-.8-.6-1.4-1.4-1.4H4.4C3.6 0 3 .6 3 1.4v1.1c0 .3-.2.5-.5.5H1.4C.6 3 0 3.6 0 4.4v24.2c0 .8.6 1.4 1.4 1.4h12.2c.8 0 1.4-.6 1.4-1.4V4.4c0-.8-.6-1.4-1.4-1.4h-1.1c-.3 0-.5-.2-.5-.5zm.3 25.5H2.7c-.4 0-.7-.3-.7-.7V5.9c0-.5.4-.9.9-.9h1.6c.3 0 .5-.2.5-.5V2.6c0-.3.3-.6.6-.6h3.8c.3 0 .6.3.6.6v1.9c0 .3.2.5.5.5h1.6c.5 0 .9.4.9.9v21.5c0 .3-.3.6-.7.6z"/><path class="st0" d="M3 24h9v2.3c0 .4-.3.7-.7.7H3.7c-.4 0-.7-.3-.7-.7V24z"/></svg>
