<?xml version="1.0" encoding="UTF-8" standalone="no"?>
<!DOCTYPE svg PUBLIC "-//W3C//DTD SVG 1.1//EN" "http://www.w3.org/Graphics/SVG/1.1/DTD/svg11.dtd">
<svg width="100%" height="100%" viewBox="0 0 19 19" version="1.1" xmlns="http://www.w3.org/2000/svg" xmlns:xlink="http://www.w3.org/1999/xlink" xml:space="preserve" style="fill-rule:evenodd;clip-rule:evenodd;stroke-linecap:round;stroke-linejoin:round;stroke-miterlimit:1.5;">
    <path d="M9.623,0.001L9.745,0.003L9.867,0.007L9.989,0.012L10.11,0.019L10.23,0.028L10.351,0.038L10.471,0.049L10.59,0.062L10.709,0.076L10.828,0.092L10.946,0.11L11.064,0.128L11.181,0.148L11.297,0.17L11.414,0.193L11.529,0.218L11.644,0.243L11.759,0.271L11.873,0.299L11.987,0.329L12.099,0.361L12.212,0.393L12.324,0.427L12.435,0.463L12.546,0.499L12.656,0.538L12.765,0.577L12.874,0.617L12.982,0.659L13.089,0.703L13.196,0.747L13.303,0.793L13.408,0.84L13.513,0.888L13.617,0.937L13.721,0.988L13.823,1.04L13.925,1.093L14.027,1.147L14.127,1.203L14.227,1.259L14.326,1.317L14.425,1.376L14.522,1.436L14.619,1.498L14.715,1.56L14.81,1.623L14.904,1.688L14.998,1.754L15.091,1.82L15.182,1.888L15.274,1.957L15.364,2.027L15.453,2.098L15.541,2.17L15.629,2.244L15.716,2.318L15.801,2.393L15.886,2.469L15.97,2.546L16.053,2.625L16.135,2.704L16.216,2.784L16.296,2.865L16.375,2.947L16.454,3.03L16.531,3.114L16.607,3.199L16.682,3.284L16.756,3.371L16.83,3.459L16.902,3.547L16.973,3.636L17.043,3.726L17.112,3.818L17.18,3.909L17.246,4.002L17.312,4.096L17.377,4.19L17.44,4.285L17.502,4.381L17.564,4.478L17.624,4.575L17.683,4.674L17.741,4.773L17.797,4.873L17.853,4.973L17.907,5.075L17.96,5.177L18.012,5.279L18.063,5.383L18.112,5.487L18.16,5.592L18.207,5.697L18.253,5.804L18.297,5.911L18.341,6.018L18.383,6.126L18.423,6.235L18.462,6.344L18.501,6.454L18.537,6.565L18.573,6.676L18.607,6.788L18.639,6.901L18.671,7.013L18.701,7.127L18.729,7.241L18.757,7.356L18.782,7.471L18.807,7.586L18.83,7.703L18.852,7.819L18.872,7.936L18.89,8.054L18.908,8.172L18.924,8.291L18.938,8.41L18.951,8.529L18.962,8.649L18.972,8.77L18.981,8.89L18.988,9.011L18.993,9.133L18.997,9.255L18.999,9.377L19,9.5L18.999,9.623L18.997,9.745L18.993,9.867L18.988,9.989L18.981,10.11L18.972,10.23L18.962,10.351L18.951,10.471L18.938,10.59L18.924,10.709L18.908,10.828L18.89,10.946L18.872,11.064L18.852,11.181L18.83,11.297L18.807,11.414L18.782,11.529L18.757,11.644L18.729,11.759L18.701,11.873L18.671,11.987L18.639,12.099L18.607,12.212L18.573,12.324L18.537,12.435L18.501,12.546L18.462,12.656L18.423,12.765L18.383,12.874L18.341,12.982L18.297,13.089L18.253,13.196L18.207,13.303L18.16,13.408L18.112,13.513L18.063,13.617L18.012,13.721L17.96,13.823L17.907,13.925L17.853,14.027L17.797,14.127L17.741,14.227L17.683,14.326L17.624,14.425L17.564,14.522L17.502,14.619L17.44,14.715L17.377,14.81L17.312,14.904L17.246,14.998L17.18,15.091L17.112,15.182L17.043,15.274L16.973,15.364L16.902,15.453L16.83,15.541L16.756,15.629L16.682,15.716L16.607,15.801L16.531,15.886L16.454,15.97L16.375,16.053L16.296,16.135L16.216,16.216L16.135,16.296L16.053,16.375L15.97,16.454L15.886,16.531L15.801,16.607L15.716,16.682L15.629,16.756L15.541,16.83L15.453,16.902L15.364,16.973L15.274,17.043L15.182,17.112L15.091,17.18L14.998,17.246L14.904,17.312L14.81,17.377L14.715,17.44L14.619,17.502L14.522,17.564L14.425,17.624L14.326,17.683L14.227,17.741L14.127,17.797L14.027,17.853L13.925,17.907L13.823,17.96L13.721,18.012L13.617,18.063L13.513,18.112L13.408,18.16L13.303,18.207L13.196,18.253L13.089,18.297L12.982,18.341L12.874,18.383L12.765,18.423L12.656,18.462L12.546,18.501L12.435,18.537L12.324,18.573L12.212,18.607L12.099,18.639L11.987,18.671L11.873,18.701L11.759,18.729L11.644,18.757L11.529,18.782L11.414,18.807L11.297,18.83L11.181,18.852L11.064,18.872L10.946,18.89L10.828,18.908L10.709,18.924L10.59,18.938L10.471,18.951L10.351,18.962L10.23,18.972L10.11,18.981L9.989,18.988L9.867,18.993L9.745,18.997L9.623,18.999L9.5,19L9.377,18.999L9.255,18.997L9.133,18.993L9.011,18.988L8.89,18.981L8.77,18.972L8.649,18.962L8.529,18.951L8.41,18.938L8.291,18.924L8.172,18.908L8.054,18.89L7.936,18.872L7.819,18.852L7.703,18.83L7.586,18.807L7.471,18.782L7.356,18.757L7.241,18.729L7.127,18.701L7.013,18.671L6.901,18.639L6.788,18.607L6.676,18.573L6.565,18.537L6.454,18.501L6.344,18.462L6.235,18.423L6.126,18.383L6.018,18.341L5.911,18.297L5.804,18.253L5.697,18.207L5.592,18.16L5.487,18.112L5.383,18.063L5.279,18.012L5.177,17.96L5.075,17.907L4.973,17.853L4.873,17.797L4.773,17.741L4.674,17.683L4.575,17.624L4.478,17.564L4.381,17.502L4.285,17.44L4.19,17.377L4.096,17.312L4.002,17.246L3.909,17.18L3.818,17.112L3.726,17.043L3.636,16.973L3.547,16.902L3.459,16.83L3.371,16.756L3.284,16.682L3.199,16.607L3.114,16.531L3.03,16.454L2.947,16.375L2.865,16.296L2.784,16.216L2.704,16.135L2.625,16.053L2.546,15.97L2.469,15.886L2.393,15.801L2.318,15.716L2.244,15.629L2.17,15.541L2.098,15.453L2.027,15.364L1.957,15.274L1.888,15.182L1.82,15.091L1.754,14.998L1.688,14.904L1.623,14.81L1.56,14.715L1.498,14.619L1.436,14.522L1.376,14.425L1.317,14.326L1.259,14.227L1.203,14.127L1.147,14.027L1.093,13.925L1.04,13.823L0.988,13.721L0.937,13.617L0.888,13.513L0.84,13.408L0.793,13.303L0.747,13.196L0.703,13.089L0.659,12.982L0.617,12.874L0.577,12.765L0.538,12.656L0.499,12.546L0.463,12.435L0.427,12.324L0.393,12.212L0.361,12.099L0.329,11.987L0.299,11.873L0.271,11.759L0.243,11.644L0.218,11.529L0.193,11.414L0.17,11.297L0.148,11.181L0.128,11.064L0.11,10.946L0.092,10.828L0.076,10.709L0.062,10.59L0.049,10.471L0.038,10.351L0.028,10.23L0.019,10.11L0.012,9.989L0.007,9.867L0.003,9.745L0.001,9.623L0,9.5L0.001,9.377L0.003,9.255L0.007,9.133L0.012,9.011L0.019,8.89L0.028,8.77L0.038,8.649L0.049,8.529L0.062,8.41L0.076,8.291L0.092,8.172L0.11,8.054L0.128,7.936L0.148,7.819L0.17,7.703L0.193,7.586L0.218,7.471L0.243,7.356L0.271,7.241L0.299,7.127L0.329,7.013L0.361,6.901L0.393,6.788L0.427,6.676L0.463,6.565L0.499,6.454L0.538,6.344L0.577,6.235L0.617,6.126L0.659,6.018L0.703,5.911L0.747,5.804L0.793,5.697L0.84,5.592L0.888,5.487L0.937,5.383L0.988,5.279L1.04,5.177L1.093,5.075L1.147,4.973L1.203,4.873L1.259,4.773L1.317,4.674L1.376,4.575L1.436,4.478L1.498,4.381L1.56,4.285L1.623,4.19L1.688,4.096L1.754,4.002L1.82,3.909L1.888,3.818L1.957,3.726L2.027,3.636L2.098,3.547L2.17,3.459L2.244,3.371L2.318,3.284L2.393,3.199L2.469,3.114L2.546,3.03L2.625,2.947L2.704,2.865L2.784,2.784L2.865,2.704L2.947,2.625L3.03,2.546L3.114,2.469L3.199,2.393L3.284,2.318L3.371,2.244L3.459,2.17L3.547,2.098L3.636,2.027L3.726,1.957L3.818,1.888L3.909,1.82L4.002,1.754L4.096,1.688L4.19,1.623L4.285,1.56L4.381,1.498L4.478,1.436L4.575,1.376L4.674,1.317L4.773,1.259L4.873,1.203L4.973,1.147L5.075,1.093L5.177,1.04L5.279,0.988L5.383,0.937L5.487,0.888L5.592,0.84L5.697,0.793L5.804,0.747L5.911,0.703L6.018,0.659L6.126,0.617L6.235,0.577L6.344,0.538L6.454,0.499L6.565,0.463L6.676,0.427L6.788,0.393L6.901,0.361L7.013,0.329L7.127,0.299L7.241,0.271L7.356,0.243L7.471,0.218L7.586,0.193L7.703,0.17L7.819,0.148L7.936,0.128L8.054,0.11L8.172,0.092L8.291,0.076L8.41,0.062L8.529,0.049L8.649,0.038L8.77,0.028L8.89,0.019L9.011,0.012L9.133,0.007L9.255,0.003L9.377,0.001L9.5,0L9.623,0.001ZM9.403,2.001L9.306,2.003L9.209,2.006L9.113,2.01L9.017,2.015L8.921,2.022L8.826,2.03L8.732,2.039L8.637,2.049L8.543,2.06L8.45,2.073L8.356,2.087L8.264,2.101L8.171,2.117L8.079,2.134L7.988,2.153L7.897,2.172L7.806,2.192L7.716,2.214L7.626,2.236L7.536,2.26L7.447,2.284L7.359,2.31L7.271,2.337L7.183,2.365L7.096,2.394L7.009,2.424L6.923,2.455L6.837,2.487L6.752,2.52L6.667,2.554L6.583,2.589L6.5,2.625L6.416,2.662L6.334,2.7L6.252,2.739L6.17,2.779L6.089,2.82L6.008,2.862L5.928,2.905L5.849,2.948L5.77,2.993L5.692,3.039L5.614,3.085L5.537,3.133L5.461,3.181L5.385,3.23L5.31,3.28L5.235,3.332L5.161,3.383L5.088,3.436L5.016,3.49L4.944,3.544L4.872,3.6L4.802,3.656L4.732,3.713L4.663,3.771L4.594,3.829L4.526,3.889L4.459,3.949L4.393,4.01L4.327,4.072L4.262,4.135L4.198,4.198L4.135,4.262L4.072,4.327L4.01,4.393L3.949,4.459L3.889,4.526L3.829,4.594L3.771,4.663L3.713,4.732L3.656,4.802L3.6,4.872L3.544,4.944L3.49,5.016L3.436,5.088L3.383,5.161L3.332,5.235L3.28,5.31L3.23,5.385L3.181,5.461L3.133,5.537L3.085,5.614L3.039,5.692L2.993,5.77L2.948,5.849L2.905,5.928L2.862,6.008L2.82,6.089L2.779,6.17L2.739,6.252L2.7,6.334L2.662,6.416L2.625,6.5L2.589,6.583L2.554,6.667L2.52,6.752L2.487,6.837L2.455,6.923L2.424,7.009L2.394,7.096L2.365,7.183L2.337,7.271L2.31,7.359L2.284,7.447L2.26,7.536L2.236,7.626L2.214,7.716L2.192,7.806L2.172,7.897L2.153,7.988L2.134,8.079L2.117,8.171L2.101,8.264L2.087,8.356L2.073,8.45L2.06,8.543L2.049,8.637L2.039,8.732L2.03,8.826L2.022,8.921L2.015,9.017L2.01,9.113L2.006,9.209L2.003,9.306L2.001,9.403L2,9.5L2.001,9.597L2.003,9.694L2.006,9.791L2.01,9.887L2.015,9.983L2.022,10.079L2.03,10.174L2.039,10.268L2.049,10.363L2.06,10.457L2.073,10.55L2.087,10.644L2.101,10.736L2.117,10.829L2.134,10.921L2.153,11.012L2.172,11.103L2.192,11.194L2.214,11.284L2.236,11.374L2.26,11.464L2.284,11.553L2.31,11.641L2.337,11.729L2.365,11.817L2.394,11.904L2.424,11.991L2.455,12.077L2.487,12.163L2.52,12.248L2.554,12.333L2.589,12.417L2.625,12.5L2.662,12.584L2.7,12.666L2.739,12.748L2.779,12.83L2.82,12.911L2.862,12.992L2.905,13.072L2.948,13.151L2.993,13.23L3.039,13.308L3.085,13.386L3.133,13.463L3.181,13.539L3.23,13.615L3.28,13.69L3.332,13.765L3.383,13.839L3.436,13.912L3.49,13.984L3.544,14.056L3.6,14.128L3.656,14.198L3.713,14.268L3.771,14.337L3.829,14.406L3.889,14.474L3.949,14.541L4.01,14.607L4.072,14.673L4.135,14.738L4.198,14.802L4.262,14.865L4.327,14.928L4.393,14.99L4.459,15.051L4.526,15.111L4.594,15.171L4.663,15.229L4.732,15.287L4.802,15.344L4.872,15.4L4.944,15.456L5.016,15.51L5.088,15.564L5.161,15.617L5.235,15.668L5.31,15.72L5.385,15.77L5.461,15.819L5.537,15.867L5.614,15.915L5.692,15.961L5.77,16.007L5.849,16.052L5.928,16.095L6.008,16.138L6.089,16.18L6.17,16.221L6.252,16.261L6.334,16.3L6.416,16.338L6.5,16.375L6.583,16.411L6.667,16.446L6.752,16.48L6.837,16.513L6.923,16.545L7.009,16.576L7.096,16.606L7.183,16.635L7.271,16.663L7.359,16.69L7.447,16.716L7.536,16.74L7.626,16.764L7.716,16.786L7.806,16.808L7.897,16.828L7.988,16.847L8.079,16.866L8.171,16.883L8.264,16.899L8.356,16.913L8.45,16.927L8.543,16.94L8.637,16.951L8.732,16.961L8.826,16.97L8.921,16.978L9.017,16.985L9.113,16.99L9.209,16.994L9.306,16.997L9.403,16.999L9.5,17L9.597,16.999L9.694,16.997L9.791,16.994L9.887,16.99L9.983,16.985L10.079,16.978L10.174,16.97L10.268,16.961L10.363,16.951L10.457,16.94L10.55,16.927L10.644,16.913L10.736,16.899L10.829,16.883L10.921,16.866L11.012,16.847L11.103,16.828L11.194,16.808L11.284,16.786L11.374,16.764L11.464,16.74L11.553,16.716L11.641,16.69L11.729,16.663L11.817,16.635L11.904,16.606L11.991,16.576L12.077,16.545L12.163,16.513L12.248,16.48L12.333,16.446L12.417,16.411L12.5,16.375L12.584,16.338L12.666,16.3L12.748,16.261L12.83,16.221L12.911,16.18L12.992,16.138L13.072,16.095L13.151,16.052L13.23,16.007L13.308,15.961L13.386,15.915L13.463,15.867L13.539,15.819L13.615,15.77L13.69,15.72L13.765,15.668L13.839,15.617L13.912,15.564L13.984,15.51L14.056,15.456L14.128,15.4L14.198,15.344L14.268,15.287L14.337,15.229L14.406,15.171L14.474,15.111L14.541,15.051L14.607,14.99L14.673,14.928L14.738,14.865L14.802,14.802L14.865,14.738L14.928,14.673L14.99,14.607L15.051,14.541L15.111,14.474L15.171,14.406L15.229,14.337L15.287,14.268L15.344,14.198L15.4,14.128L15.456,14.056L15.51,13.984L15.564,13.912L15.617,13.839L15.668,13.765L15.72,13.69L15.77,13.615L15.819,13.539L15.867,13.463L15.915,13.386L15.961,13.308L16.007,13.23L16.052,13.151L16.095,13.072L16.138,12.992L16.18,12.911L16.221,12.83L16.261,12.748L16.3,12.666L16.338,12.584L16.375,12.5L16.411,12.417L16.446,12.333L16.48,12.248L16.513,12.163L16.545,12.077L16.576,11.991L16.606,11.904L16.635,11.817L16.663,11.729L16.69,11.641L16.716,11.553L16.74,11.464L16.764,11.374L16.786,11.284L16.808,11.194L16.828,11.103L16.847,11.012L16.866,10.921L16.883,10.829L16.899,10.736L16.913,10.644L16.927,10.55L16.94,10.457L16.951,10.363L16.961,10.268L16.97,10.174L16.978,10.079L16.985,9.983L16.99,9.887L16.994,9.791L16.997,9.694L16.999,9.597L17,9.5L16.999,9.403L16.997,9.306L16.994,9.209L16.99,9.113L16.985,9.017L16.978,8.921L16.97,8.826L16.961,8.732L16.951,8.637L16.94,8.543L16.927,8.45L16.913,8.356L16.899,8.264L16.883,8.171L16.866,8.079L16.847,7.988L16.828,7.897L16.808,7.806L16.786,7.716L16.764,7.626L16.74,7.536L16.716,7.447L16.69,7.359L16.663,7.271L16.635,7.183L16.606,7.096L16.576,7.009L16.545,6.923L16.513,6.837L16.48,6.752L16.446,6.667L16.411,6.583L16.375,6.5L16.338,6.416L16.3,6.334L16.261,6.252L16.221,6.17L16.18,6.089L16.138,6.008L16.095,5.928L16.052,5.849L16.007,5.77L15.961,5.692L15.915,5.614L15.867,5.537L15.819,5.461L15.77,5.385L15.72,5.31L15.668,5.235L15.617,5.161L15.564,5.088L15.51,5.016L15.456,4.944L15.4,4.872L15.344,4.802L15.287,4.732L15.229,4.663L15.171,4.594L15.111,4.526L15.051,4.459L14.99,4.393L14.928,4.327L14.865,4.262L14.802,4.198L14.738,4.135L14.673,4.072L14.607,4.01L14.541,3.949L14.474,3.889L14.406,3.829L14.337,3.771L14.268,3.713L14.198,3.656L14.128,3.6L14.056,3.544L13.984,3.49L13.912,3.436L13.839,3.383L13.765,3.332L13.69,3.28L13.615,3.23L13.539,3.181L13.463,3.133L13.386,3.085L13.308,3.039L13.23,2.993L13.151,2.948L13.072,2.905L12.992,2.862L12.911,2.82L12.83,2.779L12.748,2.739L12.666,2.7L12.584,2.662L12.5,2.625L12.417,2.589L12.333,2.554L12.248,2.52L12.163,2.487L12.077,2.455L11.991,2.424L11.904,2.394L11.817,2.365L11.729,2.337L11.641,2.31L11.553,2.284L11.464,2.26L11.374,2.236L11.284,2.214L11.194,2.192L11.103,2.172L11.012,2.153L10.921,2.134L10.829,2.117L10.736,2.101L10.644,2.087L10.55,2.073L10.457,2.06L10.363,2.049L10.268,2.039L10.174,2.03L10.079,2.022L9.983,2.015L9.887,2.01L9.791,2.006L9.694,2.003L9.597,2.001L9.5,2L9.403,2.001Z"/>
    <g transform="matrix(0.944444,0,0,1,0.527778,0)">
        <path d="M0.5,9.5L3.637,9.5L6.853,14L12.147,5L15.564,9.5L18.5,9.5" style="fill:none;stroke:black;stroke-width:2.06px;"/>
    </g>
</svg>
