<?xml version="1.0" encoding="utf-8"?>
<!-- Generator: Adobe Illustrator 21.1.0, SVG Export Plug-In . SVG Version: 6.00 Build 0)  -->
<svg version="1.1" id="Capa_1" xmlns="http://www.w3.org/2000/svg" xmlns:xlink="http://www.w3.org/1999/xlink" x="0px" y="0px"
	 viewBox="0 0 19 19" style="enable-background:new 0 0 19 19;" xml:space="preserve">
<style type="text/css">
	.st0{fill:#040404;}
	.st1{fill:#FFFFFF;}
</style>
<title>Dinamic_icon</title>
<desc>Created with Sketch.</desc>
<g id="Master-Operator">
	<g id="Dinamic">
		<path id="Path" class="st0" d="M9.5,19C4.3,19,0,14.7,0,9.5S4.3,0,9.5,0S19,4.3,19,9.5S14.7,19,9.5,19z"/>
		<path id="Oval-2" class="st1" d="M9.5,18c4.7,0,8.5-3.8,8.5-8.5S14.2,1,9.5,1S1,4.8,1,9.5S4.8,18,9.5,18z"/>
		<path id="Path-4" class="st0" d="M7.6,14.8c0.1,0.3,0.6,0.3,0.7,0l3.3-9.5l2.7,4.6c0.1,0.1,0.2,0.2,0.3,0.1H19V9h-4.2l-3-4.8
			c-0.2-0.3-0.6-0.2-0.7,0.1l-3.2,9.4l-2-4.1C5.8,9.4,5.7,9.3,5.5,9H1v1h4.3L7.6,14.8z"/>
	</g>
</g>
</svg>
