<svg id="Capa_1" xmlns="http://www.w3.org/2000/svg" viewBox="0 0 19 19"><style>.st0{fill:#040404}.st1{fill:#fff}</style><title>Dinamic_icon</title><g id="Master-Operator"><g id="Dinamic"><path id="Path" class="st0" d="M9.5 19C4.3 19 0 14.7 0 9.5S4.3 0 9.5 0 19 4.3 19 9.5 14.7 19 9.5 19z"/><path id="Oval-2" class="st1" d="M9.5 18c4.7 0 8.5-3.8 8.5-8.5S14.2 1 9.5 1 1 4.8 1 9.5 4.8 18 9.5 18z"/><path id="Path-4" class="st0" d="M7.6 14.8c.1.3.6.3.7 0l3.3-9.5 2.7 4.6c.1.1.2.2.3.1H19V9h-4.2l-3-4.8c-.2-.3-.6-.2-.7.1l-3.2 9.4-2-4.1c-.1-.2-.2-.3-.4-.6H1v1h4.3l2.3 4.8z"/></g></g></svg>