<?xml version="1.0" encoding="utf-8"?>
<!-- Generator: Adobe Illustrator 21.1.0, SVG Export Plug-In . SVG Version: 6.00 Build 0)  -->
<svg version="1.1" id="Capa_1" xmlns="http://www.w3.org/2000/svg" xmlns:xlink="http://www.w3.org/1999/xlink" x="0px" y="0px"
	 viewBox="0 0 21 28" style="enable-background:new 0 0 21 28;" xml:space="preserve">
<style type="text/css">
	.st0{fill:#DC3045;}
</style>
<title>fuel_icon</title>
<desc>Created with Sketch.</desc>
<path class="st0" d="M20,4V0.7C20,0.3,19.7,0,19.3,0H1.7C1.3,0,1,0.3,1,0.7V4h1v3H1v4h1v6H1v4h1v2H1v4.3C1,27.7,1.3,28,1.7,28h17.5
	c0.4,0,0.7-0.3,0.7-0.7V23h-1v-2h1v-4h-1v-6h1V7h-1V4H20z M18,4h-1v4h1v2h-1v8h1v2h-1v4h1v1.3c0,0.4-0.3,0.7-0.7,0.7H3.7
	C3.3,26,3,25.7,3,25.3V24h1v-4H3v-2h1v-8H3V8h1V4H3V2.7C3,2.3,3.3,2,3.7,2h13.5C17.7,2,18,2.3,18,2.7V4z"/>
<path id="Fill-4_1_" class="st0" d="M11.4,8.5C11.2,8.2,10.9,8,10.5,8S9.8,8.2,9.6,8.5c-1.4,1.8-3.1,4.3-3.1,5.7
	c0,2.1,1.8,3.9,4,3.9c1.1,0,2.1-0.4,2.8-1.2c0.8-0.7,1.2-1.7,1.1-2.7C14.5,12.6,12.3,9.6,11.4,8.5z M12.6,16.1
	c-0.5,0.5-1.3,0.8-2.1,0.8c-1.6,0-2.9-1.3-2.9-2.8c0-0.9,1.1-2.8,2.9-5.1l0,0l0,0c1.8,2.3,2.9,4.2,2.9,5.1
	C13.4,14.9,13.1,15.6,12.6,16.1z"/>
<rect x="5" y="22" class="st0" width="11" height="3"/>
</svg>
