<svg id="Capa_1" xmlns="http://www.w3.org/2000/svg" viewBox="0 0 21 28"><style>.st0{fill:#fff}</style><title>fuel_icon</title><path class="st0" d="M20 4V.7c0-.4-.3-.7-.7-.7H1.7c-.4 0-.7.3-.7.7V4h1v3H1v4h1v6H1v4h1v2H1v4.3c0 .4.3.7.7.7h17.5c.4 0 .7-.3.7-.7V23h-1v-2h1v-4h-1v-6h1V7h-1V4H20zm-2 0h-1v4h1v2h-1v8h1v2h-1v4h1v1.3c0 .4-.3.7-.7.7H3.7c-.4 0-.7-.3-.7-.7V24h1v-4H3v-2h1v-8H3V8h1V4H3V2.7c0-.4.3-.7.7-.7h13.5c.5 0 .8.3.8.7V4z"/><path id="Fill-4_1_" class="st0" d="M11.4 8.5c-.2-.3-.5-.5-.9-.5s-.7.2-.9.5c-1.4 1.8-3.1 4.3-3.1 5.7 0 2.1 1.8 3.9 4 3.9 1.1 0 2.1-.4 2.8-1.2.8-.7 1.2-1.7 1.1-2.7.1-1.6-2.1-4.6-3-5.7zm1.2 7.6c-.5.5-1.3.8-2.1.8-1.6 0-2.9-1.3-2.9-2.8 0-.9 1.1-2.8 2.9-5.1 1.8 2.3 2.9 4.2 2.9 5.1 0 .8-.3 1.5-.8 2z"/><path class="st0" d="M5 22h11v3H5z"/></svg>