<?xml version="1.0" encoding="UTF-8" standalone="no"?>
<!DOCTYPE svg PUBLIC "-//W3C//DTD SVG 1.1//EN" "http://www.w3.org/Graphics/SVG/1.1/DTD/svg11.dtd">
<svg width="100%" height="100%" viewBox="0 0 19 19" version="1.1" xmlns="http://www.w3.org/2000/svg" xmlns:xlink="http://www.w3.org/1999/xlink" xml:space="preserve" style="fill-rule:evenodd;clip-rule:evenodd;stroke-linejoin:round;stroke-miterlimit:1.41421;">
    <g transform="matrix(0.514286,0,0,3.6,-0.257143,-1.8)">
        <path d="M18,3L0.5,3L0.5,0.5L18,0.5L18,3ZM4.389,1.056L4.389,2.444L14.111,2.444L14.111,1.056L4.389,1.056Z"/>
    </g>
    <g transform="matrix(0.514286,0,0,3.6,9.74286,-1.8)">
        <path d="M18,3L0.5,3L0.5,0.5L18,0.5L18,3ZM4.389,1.056L4.389,2.444L14.111,2.444L14.111,1.056L4.389,1.056Z"/>
    </g>
    <g transform="matrix(0.514286,0,0,3.6,-0.257143,8.2)">
        <path d="M18,3L0.5,3L0.5,0.5L18,0.5L18,3ZM4.389,1.056L4.389,2.444L14.111,2.444L14.111,1.056L4.389,1.056Z"/>
    </g>
    <g transform="matrix(0.514286,0,0,3.6,9.74286,8.2)">
        <path d="M18,3L0.5,3L0.5,0.5L18,0.5L18,3ZM4.389,1.056L4.389,2.444L14.111,2.444L14.111,1.056L4.389,1.056Z"/>
    </g>
</svg>
