<?xml version="1.0" encoding="utf-8"?>
<!-- Generator: Adobe Illustrator 21.1.0, SVG Export Plug-In . SVG Version: 6.00 Build 0)  -->
<svg version="1.1" id="Capa_1" xmlns="http://www.w3.org/2000/svg" xmlns:xlink="http://www.w3.org/1999/xlink" x="0px" y="0px"
	 viewBox="0 0 20 19" style="enable-background:new 0 0 20 19;" xml:space="preserve">
<style type="text/css">
	.st0{fill:#FFFFFF;}
	.st1{fill:#040404;}
</style>
<title>Lines_icon</title>
<desc>Created with Sketch.</desc>
<path id="Rectangle-2-Copy" class="st0" d="M2.5,14h15c1.4,0,2.5,1.1,2.5,2.5l0,0c0,1.4-1.1,2.5-2.5,2.5h-15C1.1,19,0,17.9,0,16.5
	l0,0C0,15.1,1.1,14,2.5,14z"/>
<path id="Rectangle-2-Copy-4" class="st0" d="M2.5,0h15C18.9,0,20,1.1,20,2.5l0,0C20,3.9,18.9,5,17.5,5h-15C1.1,5,0,3.9,0,2.5l0,0
	C0,1.1,1.1,0,2.5,0z"/>
<path id="Rectangle-2-Copy-5" class="st0" d="M2.5,7h15C18.9,7,20,8.1,20,9.5l0,0c0,1.4-1.1,2.5-2.5,2.5h-15C1.1,12,0,10.9,0,9.5
	l0,0C0,8.1,1.1,7,2.5,7z"/>
<path id="Rectangle-2-Copy-4_1_" class="st1" d="M2.4,1C1.6,1,1,1.7,1,2.5S1.6,4,2.4,4h15.2C18.4,4,19,3.3,19,2.5S18.4,1,17.6,1H2.4
	z M2.4,0h15.2C18.9,0,20,1.1,20,2.5S18.9,5,17.6,5H2.4C1.1,5,0,3.9,0,2.5S1.1,0,2.4,0z"/>
<path id="Rectangle-2-Copy-6" class="st1" d="M2.4,8C1.6,8,1,8.7,1,9.5S1.6,11,2.4,11h15.2c0.8,0,1.4-0.7,1.4-1.5S18.4,8,17.6,8H2.4
	z M2.4,7h15.2C18.9,7,20,8.1,20,9.5S18.9,12,17.6,12H2.4C1.1,12,0,10.9,0,9.5S1.1,7,2.4,7z"/>
<path id="Rectangle-2-Copy-7" class="st1" d="M2.4,15C1.6,15,1,15.7,1,16.5C1,17.3,1.6,18,2.4,18h15.2c0.8,0,1.4-0.7,1.4-1.5
	c0-0.8-0.6-1.5-1.4-1.5H2.4z M2.4,14h15.2c1.3,0,2.4,1.1,2.4,2.5S18.9,19,17.6,19H2.4C1.1,19,0,17.9,0,16.5S1.1,14,2.4,14z"/>
</svg>
