<svg viewBox="0 0 16 16" xmlns="http://www.w3.org/2000/svg" fill-rule="evenodd" clip-rule="evenodd" stroke-linecap="round" stroke-linejoin="round" stroke-miterlimit="1.5"><path d="M7.597 0l.097.002.096.004.096.004.095.005.095.007.095.008.095.009.095.01.094.011.094.013.092.013.093.015.093.016.092.017.092.018.091.02.09.02.092.022.09.022.089.024.09.025.088.026.088.026.088.029.087.028.087.03.087.032.086.031.085.034.085.034.084.035.084.036.083.037.083.038.082.039.082.04.08.04.082.043.08.043.079.043.08.045.077.046.078.046.077.048.076.048.076.05.075.05.074.05.075.052.073.053.072.054.072.054.071.056.071.055.07.058.069.057.068.059.068.06.066.06.067.06.066.062.065.062.063.064.064.063.062.065.062.066.06.067.06.066.06.068.059.068.057.07.058.069.055.07.056.072.054.072.054.072.053.073.051.075.052.074.05.075.049.076.048.076.048.077.046.078.046.078.045.08.043.078.043.08.042.081.041.08.04.083.04.082.037.083.037.083.036.084.035.084.034.085.034.085.031.086.032.087.03.087.028.087.029.088.026.088.026.089.025.09.024.088.022.09.022.091.02.09.02.092.018.092.017.092.016.093.015.093.013.092.013.094.01.094.011.095.009.095.008.095.007.095.005.095.004.096.004.096.001.097L15 7.5v.097l-.002.097-.004.096-.004.096-.005.095-.007.095-.008.095-.009.095-.01.095-.011.094-.013.094-.013.092-.015.093-.016.093-.017.092-.018.092-.02.091-.02.09-.022.092-.022.09-.024.089-.025.09-.026.088-.026.088-.029.088-.028.087-.03.087-.032.087-.031.086-.034.085-.034.085-.035.084-.036.084-.037.083-.038.083-.039.082-.04.082-.04.08-.043.082-.043.08-.043.079-.045.08-.046.077-.046.078-.048.077-.048.076-.05.076-.05.075-.05.074-.052.075-.053.073-.054.072-.054.072-.056.071-.055.071-.058.07-.057.069-.059.068-.06.068-.06.066-.06.067-.062.066-.062.065-.064.063-.063.064-.065.062-.066.062-.067.06-.066.06-.068.06-.068.059-.07.057-.069.058-.07.055-.072.056-.072.054-.072.054-.073.053-.075.051-.074.052-.075.05-.076.049-.076.048-.077.048-.078.046-.078.046-.08.045-.078.043-.08.043-.081.042-.08.041-.083.04-.082.04-.083.037-.083.037-.084.036-.084.035-.085.034-.085.034-.086.031-.087.032-.087.03-.087.028-.088.029-.088.026-.089.026-.09.025-.088.024-.09.022-.091.022-.09.02-.092.02-.092.018-.092.017-.093.016-.093.015-.092.013-.094.013-.094.01-.095.011-.095.009-.095.008-.095.007-.095.005-.096.004-.096.004-.097.001L7.5 15h-.097l-.097-.002-.096-.004-.096-.004-.095-.005-.095-.007-.095-.008-.095-.009-.095-.01-.094-.011-.094-.013-.092-.013-.093-.015-.093-.016-.092-.017-.092-.018-.091-.02-.09-.02-.092-.022-.09-.022-.089-.024-.09-.025-.088-.026-.088-.026-.088-.029-.087-.028-.087-.03-.087-.032-.086-.031-.085-.034-.085-.034-.084-.035-.084-.036-.083-.037-.083-.038-.082-.039-.082-.04-.08-.04-.082-.043-.08-.043-.079-.043-.08-.045-.077-.046-.078-.046-.077-.048-.076-.048-.076-.05-.075-.05-.074-.05-.075-.052-.073-.053-.072-.054-.072-.054-.071-.056-.071-.055-.07-.058-.069-.057-.068-.059-.068-.06-.066-.06-.067-.06-.066-.062-.065-.062-.063-.064-.064-.063-.062-.065-.062-.066-.06-.067-.06-.066-.06-.068-.059-.068-.057-.07-.058-.069-.055-.07-.056-.072-.054-.072-.054-.072-.053-.073-.051-.075-.052-.074-.05-.075-.049-.076-.048-.076-.048-.077-.046-.078-.046-.078-.045-.08-.043-.078-.043-.08-.042-.081-.041-.08-.04-.083-.04-.082-.037-.083-.037-.083-.036-.084-.035-.084-.034-.085-.034-.085-.031-.086-.032-.087-.03-.087-.028-.087-.029-.088-.026-.088-.026-.089-.025-.09-.024-.088-.022-.09-.022-.091-.02-.09-.02-.092-.018-.092-.017-.092-.016-.093-.015-.093-.013-.092-.013-.094-.01-.094-.011-.095-.009-.095-.008-.095-.007-.095-.005-.095-.004-.096-.004-.096-.001-.097L0 7.5v-.097l.002-.097.004-.096.004-.096.005-.095.007-.095.008-.095.009-.095.01-.095.011-.094.013-.094.013-.092.015-.093.016-.093.017-.092.018-.092.02-.091.02-.09.022-.092.022-.09.024-.089.025-.09.026-.088.026-.088.029-.088.028-.087.03-.087.032-.087.031-.086.034-.085.034-.085.035-.084.036-.084.037-.083.038-.083.039-.082.04-.082.04-.08.043-.082.043-.08.043-.079.045-.08.046-.077.046-.078.048-.077.048-.076.05-.076.05-.075.05-.074.052-.075.053-.073.054-.072.054-.072.056-.071.055-.071.058-.07.057-.069.059-.068.06-.068.06-.066.06-.067.062-.066.062-.065.064-.063.063-.064.065-.062.066-.062.067-.06.066-.06.068-.06.068-.059.07-.057.069-.058.07-.055.072-.056.072-.054.072-.054.073-.053.075-.051.074-.052.075-.05.076-.049.076-.048.077-.048.078-.046.078-.046.08-.045.078-.043.08-.043.081-.042.08-.041.083-.04.082-.04.083-.037.083-.037.084-.036.084-.035.085-.034.085-.034.086-.031.087-.032.087-.03.087-.028.088-.029.088-.026.089-.026.09-.025.088-.024.09-.022.091-.022.09-.02.092-.02.092-.018.092-.017.093-.016.093-.015.092-.013.094-.013.094-.01.095-.011.095-.009.095-.008.095-.007.095-.005.096-.004.096-.004.097-.001L7.5 0h.097zM7.43 2l-.072.002-.07.002-.071.003-.071.004-.07.005-.07.006-.07.007-.069.007-.068.008-.069.01-.068.01-.068.01-.068.012-.067.013-.067.013-.067.014-.067.015-.066.015-.065.017-.066.018-.065.018-.065.018-.065.02-.064.02-.064.022-.063.022-.063.023-.063.023-.063.024-.062.025-.062.025-.061.027-.06.027-.061.028-.06.028-.06.03-.06.03-.059.03-.059.032-.058.032-.057.033-.058.033-.057.035-.057.034-.055.036-.056.036-.055.037-.055.037-.054.038-.054.039-.053.04-.053.04-.053.04-.051.041-.051.042-.051.043-.05.042-.05.044-.05.044-.048.045-.049.045-.047.047-.047.046-.046.047-.047.047-.045.049-.045.049-.044.049-.044.05-.042.05-.043.05-.042.052-.041.051-.04.053-.04.053-.04.053-.039.054-.038.054-.037.055-.037.055-.036.056-.036.055-.034.057-.035.057-.033.058-.033.057-.032.058-.032.059-.03.06-.03.059-.03.06-.028.06-.028.06-.027.061-.027.061-.025.062-.025.062-.024.063-.023.063-.023.063-.022.063-.022.064-.02.064-.02.065-.018.065-.018.065-.018.066-.017.065-.015.066-.015.067-.014.067-.013.067-.013.067-.012.068-.01.068-.01.068-.01.069-.008.068-.007.07-.007.07-.006.069-.005.07-.004.07-.003.071-.002.071-.001.072L2 7.5v.071l.002.072.002.07.003.071.004.071.005.07.006.07.007.07.007.069.008.068.01.069.01.068.01.068.012.068.013.067.013.067.014.067.015.067.015.066.017.065.018.066.018.065.018.065.02.065.02.064.022.064.022.063.023.063.023.063.024.063.025.062.025.062.027.061.027.06.028.061.028.06.03.06.03.06.03.059.032.059.032.058.033.057.033.058.035.057.034.057.036.055.036.056.037.055.037.055.038.054.039.054.04.053.04.053.04.053.041.051.042.051.043.051.042.05.044.05.044.05.045.048.045.049.047.047.046.047.047.046.047.047.049.045.049.045.049.044.05.044.05.042.05.043.052.042.051.041.053.04.053.04.053.04.054.039.054.038.055.037.055.037.056.036.055.036.057.034.057.035.058.033.057.033.058.032.059.032.06.03.059.03.06.03.06.028.06.028.061.027.061.027.062.025.062.025.063.024.063.023.063.023.063.022.064.022.064.02.065.02.064.018.066.018.066.018.065.017.066.015.067.015.067.014.067.013.067.013.068.012.068.01.068.01.069.01.068.008.07.007.07.007.069.006.07.005.07.004.071.003.071.002.072.001L7.5 13h.071l.072-.002.07-.002.071-.003.071-.004.07-.005.07-.006.07-.007.069-.007.068-.008.069-.01.068-.01.068-.01.068-.012.067-.013.067-.013.067-.014.067-.015.066-.015.065-.017.066-.018.066-.018.064-.018.065-.02.064-.02.064-.022.063-.022.063-.023.063-.023.063-.024.062-.025.062-.025.061-.027.06-.027.061-.028.06-.028.06-.03.06-.03.059-.03.059-.032.058-.032.057-.033.058-.033.057-.035.057-.034.055-.036.056-.036.055-.037.055-.037.054-.038.054-.039.053-.04.053-.04.053-.04.051-.041.051-.042.051-.043.05-.042.05-.044.05-.044.048-.045.049-.045.047-.047.047-.046.046-.047.047-.047.045-.049.045-.049.044-.049.044-.05.042-.05.043-.05.042-.052.041-.051.04-.053.04-.053.04-.053.039-.054.038-.054.037-.055.037-.055.036-.056.036-.055.034-.057.035-.057.033-.058.033-.057.032-.058.032-.059.03-.06.03-.059.03-.06.028-.06.028-.06.027-.061.027-.061.025-.062.025-.062.024-.063.023-.063.023-.063.022-.063.022-.064.02-.064.02-.065.018-.064.018-.066.018-.066.017-.065.015-.066.015-.067.014-.067.013-.067.013-.067.012-.068.01-.068.01-.068.01-.069.008-.068.007-.07.007-.07.006-.069.005-.07.004-.07.003-.071.002-.071.001-.072L13 7.5v-.071l-.002-.072-.002-.07-.003-.071-.004-.071-.005-.07-.006-.07-.007-.07-.007-.069-.008-.068-.01-.069-.01-.068-.01-.068-.012-.068-.013-.067-.013-.067-.014-.067-.015-.067-.015-.066-.017-.065-.018-.066-.018-.066-.018-.064-.02-.065-.02-.064-.022-.064-.022-.063-.023-.063-.023-.063-.024-.063-.025-.062-.025-.062-.027-.061-.027-.06-.028-.061-.028-.06-.03-.06-.03-.06-.03-.059-.032-.059-.032-.058-.033-.057-.033-.058-.035-.057-.034-.057-.036-.055-.036-.056-.037-.055-.037-.055-.038-.054-.039-.054-.04-.053-.04-.053-.04-.053-.041-.051-.042-.051-.043-.051-.042-.05-.044-.05-.044-.05-.045-.048-.045-.049-.047-.047-.046-.047-.047-.046-.047-.047-.049-.045-.049-.045-.049-.044-.05-.044-.05-.042-.05-.043-.052-.042-.051-.041-.053-.04-.053-.04-.053-.04-.054-.039-.054-.038-.055-.037-.055-.037-.056-.036-.055-.036-.057-.034-.057-.035-.058-.033-.057-.033-.058-.032-.059-.032-.06-.03-.059-.03-.06-.03-.06-.028-.06-.028-.061-.027-.061-.027-.062-.025-.062-.025-.063-.024-.063-.023-.063-.023-.063-.022-.064-.022-.064-.02-.065-.02-.065-.018-.065-.018-.066-.018-.065-.017-.066-.015-.067-.015-.067-.014-.067-.013-.067-.013-.068-.012-.068-.01-.068-.01-.069-.01-.068-.008-.07-.007-.07-.007-.069-.006-.07-.005-.07-.004-.071-.003-.071-.002-.072-.001L7.5 2h-.071z"/><path d="M15 15l-2.5-2.5" fill="none" stroke="#000" stroke-width="2"/></svg>