<svg viewBox="0 0 19 19" xmlns="http://www.w3.org/2000/svg" fill-rule="evenodd" clip-rule="evenodd" stroke-linecap="round" stroke-linejoin="round" stroke-miterlimit="1.5"><path d="M9.623.001l.122.002.122.004.122.005.121.007.12.009.121.01.12.011.119.013.119.014.119.016.118.018.118.018.117.02.116.022.117.023.115.025.115.025.115.028.114.028.114.03.112.032.113.032.112.034.111.036.111.036.11.039.109.039.109.04.108.042.107.044.107.044.107.046.105.047.105.048.104.049.104.051.102.052.102.053.102.054.1.056.1.056.099.058.099.059.097.06.097.062.096.062.095.063.094.065.094.066.093.066.091.068.092.069.09.07.089.071.088.072.088.074.087.074.085.075.085.076.084.077.083.079.082.079.081.08.08.081.079.082.079.083.077.084.076.085.075.085.074.087.074.088.072.088.071.089.07.09.069.092.068.091.066.093.066.094.065.094.063.095.062.096.062.097.06.097.059.099.058.099.056.1.056.1.054.102.053.102.052.102.051.104.049.104.048.105.047.105.046.107.044.107.044.107.042.108.04.109.039.109.039.11.036.111.036.111.034.112.032.113.032.112.03.114.028.114.028.115.025.115.025.115.023.117.022.116.02.117.018.118.018.118.016.119.014.119.013.119.011.12.01.121.009.12.007.121.005.122.004.122.002.122L19 9.5l-.001.123-.002.122-.004.122-.005.122-.007.121-.009.12-.01.121-.011.12-.013.119-.014.119-.016.119-.018.118-.018.118-.02.117-.022.116-.023.117-.025.115-.025.115-.028.115-.028.114-.03.114-.032.112-.032.113-.034.112-.036.111-.036.111-.039.11-.039.109-.04.109-.042.108-.044.107-.044.107-.046.107-.047.105-.048.105-.049.104-.051.104-.052.102-.053.102-.054.102-.056.1-.056.1-.058.099-.059.099-.06.097-.062.097-.062.096-.063.095-.065.094-.066.094-.066.093-.068.091-.069.092-.07.09-.071.089-.072.088-.074.088-.074.087-.075.085-.076.085-.077.084-.079.083-.079.082-.08.081-.081.08-.082.079-.083.079-.084.077-.085.076-.085.075-.087.074-.088.074-.088.072-.089.071-.09.07-.092.069-.091.068-.093.066-.094.066-.094.065-.095.063-.096.062-.097.062-.097.06-.099.059-.099.058-.1.056-.1.056-.102.054-.102.053-.102.052-.104.051-.104.049-.105.048-.105.047-.107.046-.107.044-.107.044-.108.042-.109.04-.109.039-.11.039-.111.036-.111.036-.112.034-.113.032-.112.032-.114.03-.114.028-.115.028-.115.025-.115.025-.117.023-.116.022-.117.02-.118.018-.118.018-.119.016-.119.014-.119.013-.12.011-.121.01-.12.009-.121.007-.122.005-.122.004-.122.002L9.5 19l-.123-.001-.122-.002-.122-.004-.122-.005-.121-.007-.12-.009-.121-.01-.12-.011-.119-.013-.119-.014-.119-.016-.118-.018-.118-.018-.117-.02-.116-.022-.117-.023-.115-.025-.115-.025-.115-.028-.114-.028-.114-.03-.112-.032-.113-.032-.112-.034-.111-.036-.111-.036-.11-.039-.109-.039-.109-.04-.108-.042-.107-.044-.107-.044-.107-.046-.105-.047-.105-.048-.104-.049-.104-.051-.102-.052-.102-.053-.102-.054-.1-.056-.1-.056-.099-.058-.099-.059-.097-.06-.097-.062-.096-.062-.095-.063-.094-.065-.094-.066-.093-.066-.091-.068-.092-.069-.09-.07-.089-.071-.088-.072-.088-.074-.087-.074-.085-.075-.085-.076-.084-.077-.083-.079-.082-.079-.081-.08-.08-.081-.079-.082-.079-.083-.077-.084-.076-.085-.075-.085-.074-.087-.074-.088-.072-.088-.071-.089-.07-.09-.069-.092-.068-.091-.066-.093-.066-.094-.065-.094-.063-.095-.062-.096-.062-.097-.06-.097-.059-.099-.058-.099-.056-.1-.056-.1-.054-.102-.053-.102-.052-.102-.051-.104-.049-.104-.048-.105-.047-.105-.046-.107-.044-.107-.044-.107-.042-.108-.04-.109-.039-.109-.039-.11-.036-.111-.036-.111-.034-.112-.032-.113-.032-.112-.03-.114-.028-.114-.028-.115-.025-.115-.025-.115-.023-.117-.022-.116-.02-.117-.018-.118-.018-.118-.016-.119-.014-.119-.013-.119-.011-.12-.01-.121-.009-.12-.007-.121-.005-.122-.004-.122-.002-.122L0 9.5l.001-.123.002-.122.004-.122.005-.122.007-.121.009-.12.01-.121.011-.12.013-.119.014-.119.016-.119.018-.118.018-.118.02-.117.022-.116.023-.117.025-.115.025-.115.028-.115.028-.114.03-.114.032-.112.032-.113.034-.112.036-.111.036-.111.039-.11.039-.109.04-.109.042-.108.044-.107.044-.107.046-.107.047-.105.048-.105.049-.104.051-.104.052-.102.053-.102.054-.102.056-.1.056-.1.058-.099.059-.099.06-.097.062-.097.062-.096.063-.095.065-.094.066-.094.066-.093.068-.091.069-.092.07-.09.071-.089.072-.088.074-.088.074-.087.075-.085.076-.085.077-.084.079-.083.079-.082.08-.081.081-.08.082-.079.083-.079.084-.077.085-.076.085-.075.087-.074.088-.074.088-.072.089-.071.09-.07.092-.069.091-.068.093-.066.094-.066.094-.065.095-.063.096-.062.097-.062.097-.06.099-.059.099-.058.1-.056.1-.056.102-.054.102-.053.102-.052.104-.051.104-.049.105-.048.105-.047.107-.046.107-.044.107-.044.108-.042.109-.04.109-.039.11-.039.111-.036.111-.036.112-.034.113-.032.112-.032.114-.03.114-.028.115-.028.115-.025.115-.025.117-.023.116-.022.117-.02.118-.018.118-.018.119-.016.119-.014.119-.013.12-.011.121-.01.12-.009.121-.007.122-.005.122-.004.122-.002L9.5 0l.123.001zm-.22 2l-.097.002-.097.003-.096.004-.096.005-.096.007-.095.008-.094.009-.095.01-.094.011-.093.013-.094.014-.092.014-.093.016-.092.017-.091.019-.091.019-.091.02-.09.022-.09.022-.09.024-.089.024-.088.026-.088.027-.088.028-.087.029-.087.03-.086.031-.086.032-.085.033-.085.034-.084.035-.083.036-.084.037-.082.038-.082.039-.082.04-.081.041-.081.042-.08.043-.079.043-.079.045-.078.046-.078.046-.077.048-.076.048-.076.049-.075.05-.075.052-.074.051-.073.053-.072.054-.072.054-.072.056-.07.056-.07.057-.069.058-.069.058-.068.06-.067.06-.066.061-.066.062-.065.063-.064.063-.063.064-.063.065-.062.066-.061.066-.06.067-.06.068-.058.069-.058.069-.057.07-.056.07-.056.072-.054.072-.054.072-.053.073-.051.074-.052.075-.05.075-.049.076-.048.076-.048.077-.046.078-.046.078-.045.079-.043.079-.043.08-.042.081-.041.081-.04.082-.039.082-.038.082-.037.084-.036.083-.035.084-.034.085-.033.085-.032.086-.031.086-.03.087-.029.087-.028.088-.027.088-.026.088-.024.089-.024.09-.022.09-.022.09-.02.091-.019.091-.019.091-.017.092-.016.093-.014.092-.014.094-.013.093-.011.094-.01.095-.009.094-.008.095-.007.096-.005.096-.004.096-.003.097-.002.097L2 9.5l.001.097.002.097.003.097.004.096.005.096.007.096.008.095.009.094.01.095.011.094.013.093.014.094.014.092.016.093.017.092.019.091.019.091.02.091.022.09.022.09.024.09.024.089.026.088.027.088.028.088.029.087.03.087.031.086.032.086.033.085.034.085.035.084.036.083.037.084.038.082.039.082.04.082.041.081.042.081.043.08.043.079.045.079.046.078.046.078.048.077.048.076.049.076.05.075.052.075.051.074.053.073.054.072.054.072.056.072.056.07.057.07.058.069.058.069.06.068.06.067.061.066.062.066.063.065.063.064.064.063.065.063.066.062.066.061.067.06.068.06.069.058.069.058.07.057.07.056.072.056.072.054.072.054.073.053.074.051.075.052.075.05.076.049.076.048.077.048.078.046.078.046.079.045.079.043.08.043.081.042.081.041.082.04.082.039.082.038.084.037.083.036.084.035.085.034.085.033.086.032.086.031.087.03.087.029.088.028.088.027.088.026.089.024.09.024.09.022.09.022.091.02.091.019.091.019.092.017.093.016.092.014.094.014.093.013.094.011.095.01.094.009.095.008.096.007.096.005.096.004.097.003.097.002L9.5 17l.097-.001.097-.002.097-.003.096-.004.096-.005.096-.007.095-.008.094-.009.095-.01.094-.011.093-.013.094-.014.092-.014.093-.016.092-.017.091-.019.091-.019.091-.02.09-.022.09-.022.09-.024.089-.024.088-.026.088-.027.088-.028.087-.029.087-.03.086-.031.086-.032.085-.033.085-.034.084-.035.083-.036.084-.037.082-.038.082-.039.082-.04.081-.041.081-.042.08-.043.079-.043.079-.045.078-.046.078-.046.077-.048.076-.048.076-.049.075-.05.075-.052.074-.051.073-.053.072-.054.072-.054.072-.056.07-.056.07-.057.069-.058.069-.058.068-.06.067-.06.066-.061.066-.062.065-.063.064-.063.063-.064.063-.065.062-.066.061-.066.06-.067.06-.068.058-.069.058-.069.057-.07.056-.07.056-.072.054-.072.054-.072.053-.073.051-.074.052-.075.05-.075.049-.076.048-.076.048-.077.046-.078.046-.078.045-.079.043-.079.043-.08.042-.081.041-.081.04-.082.039-.082.038-.082.037-.084.036-.083.035-.084.034-.085.033-.085.032-.086.031-.086.03-.087.029-.087.028-.088.027-.088.026-.088.024-.089.024-.09.022-.09.022-.09.02-.091.019-.091.019-.091.017-.092.016-.093.014-.092.014-.094.013-.093.011-.094.01-.095.009-.094.008-.095.007-.096.005-.096.004-.096.003-.097.002-.097L17 9.5l-.001-.097-.002-.097-.003-.097-.004-.096-.005-.096-.007-.096-.008-.095-.009-.094-.01-.095-.011-.094-.013-.093-.014-.094-.014-.092-.016-.093-.017-.092-.019-.091-.019-.091-.02-.091-.022-.09-.022-.09-.024-.09-.024-.089-.026-.088-.027-.088-.028-.088-.029-.087-.03-.087-.031-.086-.032-.086-.033-.085-.034-.085-.035-.084-.036-.083-.037-.084-.038-.082-.039-.082-.04-.082-.041-.081-.042-.081-.043-.08-.043-.079-.045-.079-.046-.078-.046-.078-.048-.077-.048-.076-.049-.076-.05-.075-.052-.075-.051-.074-.053-.073-.054-.072-.054-.072-.056-.072-.056-.07-.057-.07-.058-.069-.058-.069-.06-.068-.06-.067-.061-.066-.062-.066-.063-.065-.063-.064-.064-.063-.065-.063-.066-.062-.066-.061-.067-.06-.068-.06-.069-.058-.069-.058-.07-.057-.07-.056-.072-.056-.072-.054-.072-.054-.073-.053-.074-.051-.075-.052-.075-.05-.076-.049-.076-.048-.077-.048-.078-.046-.078-.046-.079-.045-.079-.043-.08-.043-.081-.042-.081-.041-.082-.04-.082-.039-.082-.038-.084-.037-.083-.036-.084-.035-.085-.034-.085-.033-.086-.032-.086-.031-.087-.03-.087-.029-.088-.028-.088-.027-.088-.026-.089-.024-.09-.024-.09-.022-.09-.022-.091-.02-.091-.019-.091-.019-.092-.017-.093-.016-.092-.014-.094-.014-.093-.013-.094-.011-.095-.01-.094-.009-.095-.008-.096-.007-.096-.005-.096-.004-.097-.003-.097-.002L9.5 2l-.097.001z"/><path d="M.5 9.5h18" fill="none" stroke="#000" stroke-width="2.06" transform="matrix(.94444 0 0 1 .528 0)"/></svg>