<?xml version="1.0" encoding="utf-8"?>
<!-- Generator: Adobe Illustrator 21.1.0, SVG Export Plug-In . SVG Version: 6.00 Build 0)  -->
<svg version="1.1" id="Capa_1" xmlns="http://www.w3.org/2000/svg" xmlns:xlink="http://www.w3.org/1999/xlink" x="0px" y="0px"
	 viewBox="0 0 13 30" style="enable-background:new 0 0 13 30;" xml:space="preserve">
<style type="text/css">
	.st0{fill:#DC3045;}
</style>
<title>temp_icon</title>
<desc>Created with Sketch.</desc>
<g>
	<path class="st0" d="M10.6,19.5V4c0-0.3,0-0.7-0.1-1c-0.4-1.7-2-3-3.9-3S3.1,1.3,2.7,3C2.6,3.3,2.6,3.7,2.6,4v15.5
		c-1.2,1.1-2,2.7-2,4.5c0,3.3,2.7,6,6,6s6-2.7,6-6C12.6,22.2,11.8,20.6,10.6,19.5z M6.6,28c-2.2,0-4-1.8-4-4c0-1.5,0.8-2.8,2-3.5V5
		c0-1.1,0.9-2,2-2s2,0.9,2,2v15.5c1.2,0.7,2,2,2,3.5C10.6,26.2,8.8,28,6.6,28z"/>
	<path class="st0" d="M8.6,24c0,1.1-0.9,2-2,2s-2-0.9-2-2c0-0.7,0.4-1.4,1-1.7V8c0-0.5,0.5-1,1-1s1,0.5,1,1v14.3
		C8.2,22.6,8.6,23.3,8.6,24z"/>
</g>
</svg>
