<svg id="Capa_1" xmlns="http://www.w3.org/2000/svg" viewBox="0 0 13 30"><style>.st0{fill:#ffffff}</style><title>temp_icon</title><path class="st0" d="M10.6 19.5V4c0-.3 0-.7-.1-1-.4-1.7-2-3-3.9-3S3.1 1.3 2.7 3c-.1.3-.1.7-.1 1v15.5c-1.2 1.1-2 2.7-2 4.5 0 3.3 2.7 6 6 6s6-2.7 6-6c0-1.8-.8-3.4-2-4.5zm-4 8.5c-2.2 0-4-1.8-4-4 0-1.5.8-2.8 2-3.5V5c0-1.1.9-2 2-2s2 .9 2 2v15.5c1.2.7 2 2 2 3.5 0 2.2-1.8 4-4 4z"/><path class="st0" d="M8.6 24c0 1.1-.9 2-2 2s-2-.9-2-2c0-.7.4-1.4 1-1.7V8c0-.5.5-1 1-1s1 .5 1 1v14.3c.6.3 1 1 1 1.7z"/></svg>
