<?xml version="1.0" encoding="utf-8"?>
<!-- Generator: Adobe Illustrator 21.1.0, SVG Export Plug-In . SVG Version: 6.00 Build 0)  -->
<svg version="1.1" id="Capa_1" xmlns="http://www.w3.org/2000/svg" xmlns:xlink="http://www.w3.org/1999/xlink" x="0px" y="0px"
	 viewBox="0 0 29 29" style="enable-background:new 0 0 29 29;" xml:space="preserve">
<style type="text/css">
	.st0{fill:#1F191A;}
</style>
<title>Sites_icon</title>
<desc>Created with Sketch.</desc>
<path id="Fill-1" class="st0" d="M14.6,0.5C6.8,0.5,0.4,6.8,0.4,14.4c0,4,1.7,7.5,4.4,10l1.3-1.3c-2.4-2.2-3.8-5.3-3.8-8.7
	c0-6.6,5.5-12,12.3-12s12.3,5.4,12.3,12c0,3.4-1.5,6.5-3.8,8.7l1.3,1.3c2.7-2.5,4.4-6.1,4.4-10C28.7,6.8,22.4,0.5,14.6,0.5"/>
<path id="Fill-3" class="st0" d="M14.7,4.3C8.9,4.3,4.2,8.8,4.2,14.5c0,2.9,1.3,5.6,3.3,7.5l1.3-1.3c-1.7-1.5-2.8-3.7-2.8-6.1
	c0-4.6,3.8-8.4,8.6-8.4s8.6,3.7,8.6,8.4c0,2.4-1.1,4.6-2.8,6.1l1.3,1.3c2-1.9,3.3-4.5,3.3-7.5C25.1,8.8,20.5,4.3,14.7,4.3"/>
<path id="Fill-5" class="st0" d="M14.8,8c-3.8,0-6.8,2.9-6.8,6.6c0,1.9,0.9,3.7,2.2,4.9l1.4-1.3c-1-0.9-1.7-2.1-1.7-3.5
	c0-2.6,2.2-4.7,4.9-4.7s4.9,2.1,4.9,4.7c0,1.4-0.7,2.7-1.7,3.5l1.4,1.3c1.4-1.2,2.2-2.9,2.2-4.9C21.6,10.9,18.5,8,14.8,8"/>
<polygon id="Fill-9" class="st0" points="16.9,28 13.1,28 14.4,19 15.6,19 "/>
<circle id="Oval-9" class="st0" cx="15" cy="14" r="2"/>
</svg>
