<?xml version="1.0" encoding="utf-8"?>
<!-- Generator: Adobe Illustrator 21.1.0, SVG Export Plug-In . SVG Version: 6.00 Build 0)  -->
<svg version="1.1" id="Capa_1" xmlns="http://www.w3.org/2000/svg" xmlns:xlink="http://www.w3.org/1999/xlink" x="0px" y="0px"
	 viewBox="0 0 20 19" style="enable-background:new 0 0 20 19;" xml:space="preserve">
<style type="text/css">
	.st0{fill:#040404;}
</style>
<title>Ventana_icon</title>
<desc>Created with Sketch.</desc>
<g id="Master-Operator">
	<g id="Ventana">
		<path id="Shape" class="st0" d="M17.3,3H5.7C4.2,3,3,4.1,3,5.5v10.9C3,17.9,4.2,19,5.7,19h11.6c1.5,0,2.7-1.1,2.7-2.5V5.5
			C20,4.1,18.8,3,17.3,3z M18,16.2c0,0.2-0.1,0.4-0.3,0.6c-0.2,0.2-0.4,0.2-0.6,0.2H5.9c-0.2,0-0.5-0.1-0.6-0.2
			C5.1,16.6,5,16.4,5,16.2V5.8c0-0.2,0.1-0.4,0.3-0.6S5.7,5,5.9,5h11.2c0.2,0,0.5,0.1,0.6,0.2C17.9,5.4,18,5.6,18,5.8V16.2z"/>
		<path id="Shape_1_" class="st0" d="M17,2c0,0-1.3-2-2.7-2H2.7C1.2,0,0,1.1,0,2.5v11c0,1.2,0.4,2,1,2.3C1.2,15.9,2,16,2,16L2,3.2
			C2,2.5,2.6,2,3.3,2H17z"/>
	</g>
</g>
</svg>
