<svg id="Capa_1" xmlns="http://www.w3.org/2000/svg" viewBox="0 0 20 19"><style>.st0{fill:#040404}</style><title>Ventana_icon</title><g id="Master-Operator"><g id="Ventana"><path id="Shape" class="st0" d="M17.3 3H5.7C4.2 3 3 4.1 3 5.5v10.9C3 17.9 4.2 19 5.7 19h11.6c1.5 0 2.7-1.1 2.7-2.5v-11C20 4.1 18.8 3 17.3 3zm.7 13.2c0 .2-.1.4-.3.6-.2.2-.4.2-.6.2H5.9c-.2 0-.5-.1-.6-.2-.2-.2-.3-.4-.3-.6V5.8c0-.2.1-.4.3-.6s.4-.2.6-.2h11.2c.2 0 .5.1.6.2.2.2.3.4.3.6v10.4z"/><path id="Shape_1_" class="st0" d="M17 2s-1.3-2-2.7-2H2.7C1.2 0 0 1.1 0 2.5v11c0 1.2.4 2 1 2.3.2.1 1 .2 1 .2V3.2C2 2.5 2.6 2 3.3 2H17z"/></g></g></svg>